<?xml version="1.0" standalone="no"?>
<!DOCTYPE svg PUBLIC "-//W3C//DTD SVG 1.1//EN" "http://www.w3.org/Graphics/SVG/1.1/DTD/svg11.dtd" >
<svg xmlns="http://www.w3.org/2000/svg">
<metadata>
This is a custom SVG webfont generated by Font Squirrel.
Copyright   : Copyright c 2008 by studio kmzero All rights reserved
Designer    : Francesco Canovaro
Foundry     : studio kmzero
Foundry URL : wwwzerofontscom
</metadata>
<defs>
<font id="DuepuntozeroboldRegular" horiz-adv-x="1107" >
<font-face units-per-em="2048" ascent="1638" descent="-410" />
<missing-glyph horiz-adv-x="542" />
<glyph unicode=" "  horiz-adv-x="542" />
<glyph unicode="&#x09;" horiz-adv-x="542" />
<glyph unicode="&#xa0;" horiz-adv-x="542" />
<glyph unicode="!" horiz-adv-x="380" d="M78 111v55q0 45 32.5 76.5t75.5 31.5q47 0 79 -31.5t32 -76.5v-55q0 -47 -33 -79t-78 -32t-76.5 32t-31.5 79zM78 406v819q0 45 32.5 77.5t75.5 32.5q47 0 79 -32.5t32 -77.5v-819q0 -47 -33 -79t-78 -32t-76.5 32t-31.5 79z" />
<glyph unicode="&#x22;" horiz-adv-x="622" d="M76 1090v149q0 47 31.5 79t76.5 32t78 -32t33 -79v-149q0 -45 -32 -78t-79 -33q-43 0 -75.5 33t-32.5 78zM324 1090v149q0 47 32.5 79t77.5 32t78 -32t33 -79v-149q0 -45 -32 -78t-79 -33q-45 0 -77.5 33t-32.5 78z" />
<glyph unicode="#" horiz-adv-x="942" d="M53 479q0 45 32 78t79 33h6v160h-6q-47 0 -79 31.5t-32 76.5t32 78t79 33h6v248q0 47 31.5 78.5t77.5 31.5q45 0 77.5 -31.5t32.5 -78.5v-248h160v248q0 47 31.5 78.5t76.5 31.5t78 -31.5t33 -78.5v-248h12q45 0 77 -32t32 -79q0 -43 -32 -75.5t-77 -32.5h-12v-160h12 q45 0 77 -32t32 -79q0 -45 -32 -77.5t-77 -32.5h-12v-258q0 -47 -31.5 -79t-79.5 -32q-43 0 -75.5 31.5t-32.5 79.5v258h-160v-258q0 -47 -31.5 -79t-78.5 -32q-43 0 -76 31.5t-33 79.5v258h-6q-47 0 -79 32.5t-32 77.5zM389 590h160v160h-160v-160z" />
<glyph unicode="$" horiz-adv-x="1056" d="M39 350q0 47 29.5 79t74.5 32q43 0 72 -26.5t45 -67.5l2 -2q41 -96 152 -134v377q-74 12 -134.5 40t-105.5 72t-69.5 105.5t-24.5 139.5q0 154 86 247t248 115v53q0 45 31.5 77t78.5 32q43 0 76 -32t33 -77v-61q33 -6 70.5 -19.5t76.5 -37t74 -56t64 -80.5 q6 -14 13 -30.5t7 -32.5q0 -35 -30.5 -72t-78.5 -37q-25 0 -48 11.5t-38 29.5l2 -2q-29 31 -53 56.5t-59 42.5v-279q172 -23 279.5 -124t107.5 -281q0 -182 -107.5 -285t-279.5 -123v-66q0 -47 -32 -78.5t-77 -31.5t-77.5 31.5t-32.5 78.5v70q-41 8 -90.5 25.5t-98.5 51.5 t-95 85t-81 129q-10 28 -10 55zM301 965q0 -55 30.5 -86t82.5 -45v266q-66 -16 -89.5 -53t-23.5 -82zM633 223q68 18 118 64.5t50 120.5q0 78 -46 120.5t-122 59.5v-365z" />
<glyph unicode="%" horiz-adv-x="1359" d="M33 877v186q0 55 21.5 104.5t58.5 86t86 58t106 21.5q55 0 105.5 -21.5t87.5 -58t58.5 -86t21.5 -104.5v-186q0 -55 -21.5 -104.5t-58.5 -86.5t-87.5 -58.5t-105.5 -21.5t-105 21.5t-87 58.5t-58.5 86.5t-21.5 104.5zM207 877q0 -41 28.5 -69t69.5 -28t69.5 28t28.5 69 v186q0 41 -29.5 67.5t-68.5 26.5q-41 0 -69.5 -26.5t-28.5 -67.5v-186zM258 98q-4 39 16 72l644 1118q12 23 33.5 35t43.5 16q49 6 84 -22.5t41 -71.5q2 -16 -1 -35.5t-13 -35.5q-86 -150 -165 -288t-156.5 -273.5t-156.5 -272.5t-165 -287q-12 -23 -32.5 -35t-43.5 -16 q-51 -6 -87 24.5t-42 71.5zM788 254v186q0 55 21.5 104.5t58.5 86.5t86.5 58.5t106.5 21.5q55 0 105.5 -21.5t87 -58.5t58 -86t21.5 -105v-186q0 -55 -21.5 -104.5t-58 -86t-87 -58t-105.5 -21.5t-105.5 21.5t-87.5 58t-58.5 86t-21.5 104.5zM965 262q0 -41 28.5 -68.5 t67.5 -27.5q37 0 63.5 22.5t34.5 55.5v223q-8 31 -35.5 54.5t-62.5 23.5q-41 0 -68.5 -28t-27.5 -68v-187z" />
<glyph unicode="&#x26;" horiz-adv-x="1220" d="M51 479q0 133 64.5 241.5t169.5 174.5q-16 31 -26.5 66.5t-10.5 74.5q0 61 23.5 113.5t63.5 92.5t93 62.5t115 22.5h211q45 0 76.5 -31.5t31.5 -78.5q0 -45 -31.5 -78t-76.5 -33h-211q-29 0 -51.5 -19.5t-22.5 -50.5q0 -29 18.5 -48t44.5 -21h203h58v24q0 47 30.5 79 t77.5 32q43 0 77 -32t34 -79v-24h61q47 0 79 -33t32 -78t-32 -76.5t-79 -31.5h-61v-269q0 -100 -36 -188t-99.5 -154.5t-149.5 -105.5t-186 -39t-189.5 39t-156 105.5t-105.5 154.5t-39 188zM272 479q0 -55 20.5 -103t57.5 -84t86 -57.5t105 -21.5q55 0 101 21.5t80 57.5 t52.5 84t18.5 103v269h-58h-194q-55 0 -103.5 -21.5t-85.5 -58.5t-58.5 -85.5t-21.5 -103.5z" />
<glyph unicode="'" horiz-adv-x="407" d="M72 1090v149q0 41 33.5 76t74.5 35h76q47 0 79 -33t32 -78q0 -37 -19.5 -64.5t-54.5 -39.5v-45q0 -45 -33 -78t-78 -33q-47 0 -78.5 33t-31.5 78z" />
<glyph unicode="(" horiz-adv-x="612" d="M70 -31v1051q0 78 30.5 147.5t83 120.5t121 81t146.5 30q47 0 78.5 -32t31.5 -79q0 -45 -31.5 -76.5t-78.5 -31.5q-63 0 -109.5 -45t-50.5 -109v-1065q4 -61 50 -106t110 -45q47 0 78.5 -32t31.5 -77q0 -47 -31.5 -79t-78.5 -32q-78 0 -146.5 30t-121 81t-83 120.5 t-30.5 147.5z" />
<glyph unicode=")" horiz-adv-x="612" d="M51 -299q0 45 32 77t79 32q63 0 110 45t50 108v1063q-2 63 -49.5 108.5t-110.5 45.5q-47 0 -79 31.5t-32 76.5q0 47 32 79t79 32q78 0 147.5 -30t121.5 -81t82 -120.5t30 -147.5v-1051q0 -78 -30 -147.5t-82 -120.5t-121.5 -81t-147.5 -30q-47 0 -79 32t-32 79z" />
<glyph unicode="*" horiz-adv-x="833" d="M47 573q0 43 32 76t79 33h69l-34 61q-10 12 -12.5 25.5t-2.5 28.5q0 41 30 75.5t81 34.5q27 -4 52.5 -16t41.5 -39l37 -61q6 12 17.5 30.5t17.5 30.5q16 23 41.5 38t54.5 15q47 0 76.5 -32.5t29.5 -77.5q0 -12 -2 -25.5t-10 -28.5l-35 -59h70q45 0 76.5 -32t31.5 -77 t-31.5 -77.5t-76.5 -32.5h-74q10 -16 18.5 -32.5t18.5 -33.5q14 -27 14 -53q0 -39 -27.5 -73.5t-80.5 -34.5q-29 0 -54.5 15t-41.5 40q-14 20 -17.5 27.5t-17.5 33.5q-10 -18 -18.5 -31.5t-18.5 -29.5q-16 -25 -41 -40t-53 -15q-49 0 -80 32.5t-31 77.5q0 27 14 51l39 66 h-71q-47 0 -79 31.5t-32 78.5z" />
<glyph unicode="+" horiz-adv-x="786" d="M23 573q0 43 31.5 76t76.5 33h152v149q0 47 31.5 79t76.5 32t78 -31.5t33 -79.5v-149h151q47 0 79 -32t32 -77t-32 -77.5t-79 -32.5h-151v-152q0 -47 -32 -78.5t-79 -31.5q-43 0 -75.5 31.5t-32.5 78.5v152h-152q-45 0 -76.5 31.5t-31.5 78.5z" />
<glyph unicode="," horiz-adv-x="360" d="M70 -45v156q0 45 31.5 76.5t76.5 31.5t78 -31.5t33 -76.5v-156q0 -47 -32 -79t-79 -32q-43 0 -75.5 32t-32.5 79z" />
<glyph unicode="-" horiz-adv-x="890" d="M74 573q0 43 31.5 76t76.5 33h523q47 0 78.5 -32t31.5 -77t-31.5 -77.5t-78.5 -32.5h-523q-45 0 -76.5 31.5t-31.5 78.5z" />
<glyph unicode="." horiz-adv-x="333" d="M57 111q0 45 32 76.5t79 31.5q43 0 75.5 -31.5t32.5 -76.5q0 -47 -31.5 -79t-76.5 -32t-78 32t-33 79z" />
<glyph unicode="/" horiz-adv-x="868" d="M2 84q-4 39 16 72l644 1118q12 23 33.5 35t43.5 16q49 6 84 -22.5t41 -71.5q2 -16 -1 -35.5t-13 -36.5q-86 -150 -165 -288t-156.5 -273t-156.5 -272.5t-165 -286.5q-12 -23 -32.5 -35t-43.5 -16q-51 -6 -87 24.5t-42 71.5z" />
<glyph unicode="0" horiz-adv-x="972" d="M68 373v608q0 86 32.5 161t89 131t132 89t161.5 33t163 -33t134.5 -89t90 -131t32.5 -161v-608q0 -86 -32.5 -161t-90 -132t-134.5 -90t-163 -33t-160.5 33t-132 90t-90 132t-32.5 161zM287 373q0 -41 15 -77t43 -61.5t62.5 -41t75.5 -15.5q86 0 143.5 56.5t57.5 138.5 v608q0 41 -15.5 77t-43 62.5t-64.5 42t-78 15.5q-82 0 -139 -57.5t-57 -139.5v-608z" />
<glyph unicode="1" horiz-adv-x="505" d="M37 1137q0 27 13 54.5t42 43.5l-2 -2l186 108h-2q14 8 31 13.5t33 5.5q45 0 76.5 -32t31.5 -79v-1147q0 -47 -31.5 -78.5t-76.5 -31.5t-78 31.5t-33 78.5v955q-12 -6 -24 -15q-29 -16 -58 -16q-39 0 -73.5 30t-34.5 81z" />
<glyph unicode="2" horiz-adv-x="978" d="M63 111q0 41 27 71l547 676q18 18 30.5 54t12.5 67v2q0 82 -57.5 138.5t-141.5 56.5q-39 0 -74.5 -14.5t-63.5 -40t-44 -60.5t-16 -74q0 -47 -32 -78.5t-77 -31.5q-47 0 -79 31.5t-32 78.5q0 84 34 159t91.5 130t133 88t159.5 33q86 0 163 -33t133.5 -90t89 -133 t32.5 -162q0 -76 -24.5 -143.5t-69.5 -120.5l-387 -496h391q45 0 78 -31.5t33 -76.5q0 -47 -33 -79t-78 -32h-635q-47 0 -79 32t-32 79z" />
<glyph unicode="3" horiz-adv-x="942" d="M49 373q0 47 32 78.5t79 31.5q45 0 77.5 -31.5t32.5 -78.5q0 -82 57.5 -138.5t139.5 -56.5q84 0 141.5 56.5t57.5 140.5q0 39 -15.5 79t-43 73.5t-63.5 55t-77 23.5q-45 0 -77 36t-32 81t28 83t81 38h6q43 2 70.5 19.5t43 45t20.5 59t5 60.5q0 59 -43 102.5t-102 43.5 q-61 0 -103 -42t-42 -102q0 -47 -33 -78.5t-78 -31.5q-47 0 -79 31.5t-32 78.5v4q0 74 29 140.5t79 115.5t116.5 78t142.5 29t142.5 -29t116.5 -78t79 -115.5t29 -142.5q0 -35 -4.5 -74.5t-14.5 -78.5t-28.5 -74t-49.5 -60q33 -29 60.5 -72.5t47 -95t30 -104.5t10.5 -100 q0 -86 -33 -161t-89 -132t-133 -90t-163 -33t-162 33t-132 90t-90 132t-34 161z" />
<glyph unicode="4" horiz-adv-x="903" d="M31 330q0 31 16 59l522 920q14 27 41 39t54 12q47 0 79.5 -34t32.5 -75v-813q39 -8 64.5 -37.5t25.5 -70.5t-25.5 -71t-64.5 -38v-119q0 -47 -32.5 -78.5t-77.5 -31.5q-47 0 -79 31.5t-32 78.5v119h-416q-43 0 -75.5 34t-32.5 75zM328 440h227v391q-57 -98 -110.5 -189 t-116.5 -202z" />
<glyph unicode="5" horiz-adv-x="958" d="M61 365q0 47 32 78.5t79 31.5q45 0 77 -31.5t32 -85.5q2 -80 59 -134t139 -54q84 0 141.5 56.5t57.5 138.5v139q0 39 -15.5 74.5t-42 62.5t-63.5 42t-78 15q-51 0 -93 -22.5t-71 -59.5q-16 -16 -36.5 -34.5t-61.5 -18.5q-47 0 -75.5 31t-28.5 78v569q0 47 31.5 79 t78.5 32h512q47 0 79 -32t32 -79q0 -45 -32 -78t-79 -33h-403v-239q68 27 147 27q86 0 162 -33t133 -89.5t90 -131t33 -160.5v-139q0 -86 -33 -161t-90 -132.5t-133 -90t-162 -32.5t-161.5 32.5t-132 90t-90.5 132.5t-34 161z" />
<glyph unicode="6" horiz-adv-x="960" d="M68 375v604q0 86 32.5 160.5t89 132t133 90.5t162.5 33q43 0 100.5 -15.5t108.5 -43t87 -64.5t36 -82q0 -47 -31.5 -79t-76.5 -32q-59 0 -91 43q-27 23 -61.5 37.5t-71.5 14.5q-84 0 -141 -56.5t-57 -138.5v-12q88 49 196 49q86 0 163 -33t134.5 -88t90 -130t32.5 -161 v-229q0 -86 -32.5 -161t-90 -132t-134.5 -90t-163 -33t-160.5 33t-132 90t-90 132t-32.5 161zM287 375q0 -41 15 -77t43 -61.5t62.5 -41t75.5 -15.5q86 0 143.5 56.5t57.5 138.5v229q0 39 -15.5 75t-43 63.5t-64.5 43t-78 15.5t-75.5 -15.5t-61.5 -41t-42 -59.5t-17 -73 v-237z" />
<glyph unicode="7" horiz-adv-x="942" d="M51 100q0 29 19 58q139 248 267 486.5t269 485.5h-444q-47 0 -79 33t-32 78q0 47 32 79t79 32h624q45 0 83 -30t38 -81q0 -27 -18 -59l-633 -1139q-16 -29 -41 -41t-47 -10q-47 0 -82 31.5t-35 76.5z" />
<glyph unicode="8" horiz-adv-x="950" d="M-299 526h2h-2zM57 406q0 98 45 187t113 150q-47 53 -74.5 121t-27.5 142v4q0 80 30.5 149.5t85 122.5t125 84t150.5 31q82 0 153.5 -31t125 -84t84 -125t30.5 -151q0 -72 -27.5 -140.5t-74.5 -122.5q72 -61 114.5 -150t42.5 -190q0 -92 -34.5 -172.5t-96 -141 t-143.5 -95.5t-174 -35t-173 35t-141.5 96.5t-96.5 142.5t-36 173zM285 401q0 -45 17 -83.5t47 -68.5t70 -46.5t85 -16.5q47 0 88 17.5t70.5 46.5t47 68.5t17.5 84.5t-17.5 84t-47 69t-70.5 48.5t-88 20.5q-45 0 -85 -17.5t-70 -47.5t-47 -71t-17 -88zM336 1006 q0 -33 13 -63t36 -51.5t53.5 -33.5t65.5 -12q68 0 116 47t48 113q0 70 -48.5 117.5t-115.5 47.5q-72 0 -120 -47.5t-48 -117.5z" />
<glyph unicode="9" horiz-adv-x="962" d="M57 748v231q0 86 33 160.5t90.5 132t134 90.5t162.5 33t161 -33t132 -90.5t90 -132t33 -160.5v-606q0 -86 -33 -161t-89 -132t-133 -90t-163 -33q-43 0 -100.5 15.5t-108.5 43t-87 64.5t-36 82q0 47 32 78.5t77 31.5q29 0 51.5 -13t38.5 -30q27 -23 61.5 -37t71.5 -14 q84 0 141.5 56.5t57.5 138.5v12q-45 -25 -93.5 -38t-103.5 -13q-86 0 -162.5 32.5t-134 89t-90.5 131.5t-33 161zM276 748q0 -41 15.5 -77t43 -62.5t64.5 -42t78 -15.5q39 0 75 15.5t62.5 41t42 60t17.5 73.5v238q0 41 -15.5 77t-43 61.5t-63.5 41t-75 15.5 q-86 0 -143.5 -56.5t-57.5 -138.5v-231z" />
<glyph unicode=":" horiz-adv-x="354" d="M68 102q0 45 31.5 77t78.5 32q43 0 76 -32t33 -77q0 -47 -32 -78.5t-77 -31.5t-77.5 31.5t-32.5 78.5zM68 913q0 47 31.5 79t78.5 32q43 0 76 -31.5t33 -79.5q0 -45 -32 -76.5t-77 -31.5t-77.5 31.5t-32.5 76.5z" />
<glyph unicode=";" horiz-adv-x="360" d="M70 -45v156q0 45 31.5 76.5t78.5 31.5q43 0 76 -31.5t33 -76.5v-156q0 -47 -32 -79t-77 -32t-77.5 32t-32.5 79zM70 913q0 47 31.5 79t78.5 32q43 0 76 -31.5t33 -79.5q0 -45 -32 -76.5t-77 -31.5t-77.5 31.5t-32.5 76.5z" />
<glyph unicode="&#x3c;" horiz-adv-x="577" d="M16 498q0 39 25 73l266 347q16 23 39 30.5t45 7.5q49 0 80 -32.5t31 -75.5q0 -39 -23 -70q-49 -66 -105.5 -137.5t-107.5 -140.5q55 -72 106.5 -138.5t106.5 -138.5q23 -29 23 -69q0 -41 -31 -76t-80 -35q-51 0 -84 43l-268 348q-23 33 -23 64z" />
<glyph unicode="=" horiz-adv-x="892" d="M76 428q0 45 31.5 78t76.5 33h523q47 0 78.5 -32t31.5 -79q0 -45 -31.5 -78t-78.5 -33h-523q-45 0 -76.5 33t-31.5 78zM76 719q0 43 31.5 75.5t76.5 32.5h523q47 0 78.5 -31.5t31.5 -76.5t-31.5 -78t-78.5 -33h-523q-45 0 -76.5 32t-31.5 79z" />
<glyph unicode="&#x3e;" horiz-adv-x="581" d="M76 154q0 39 24 69q51 68 106.5 139.5t108.5 139.5l-215 276q-25 33 -24 70q0 43 31.5 75.5t82.5 32.5q23 0 45.5 -8t38.5 -30l267 -349q23 -35 22 -67q0 -39 -24 -70l-265 -346q-37 -43 -84 -43q-51 0 -82.5 35t-31.5 76z" />
<glyph unicode="?" horiz-adv-x="1015" d="M31 1010q0 27 6 45q27 68 73 123t105 96t130 63.5t147 22.5q100 0 190 -39t155.5 -104.5t104.5 -155.5t39 -191q0 -84 -30.5 -166.5t-88 -150.5t-138.5 -112t-179 -50q-12 -33 -40 -53.5t-63 -20.5q-45 0 -76.5 33t-31.5 78v66q0 45 32.5 76.5t75.5 31.5h25 q63 0 117.5 23.5t94.5 61.5t61.5 86t21.5 99q0 55 -20.5 103.5t-57.5 84.5t-86 57.5t-106 21.5q-88 0 -155 -49.5t-99 -124.5q-14 -31 -43 -47.5t-58 -16.5q-49 0 -77.5 34t-28.5 75zM334 102v56q0 45 32.5 76.5t75.5 31.5q47 0 79 -31.5t32 -76.5v-56q0 -47 -33 -78.5 t-78 -31.5t-76.5 31.5t-31.5 78.5z" />
<glyph unicode="@" horiz-adv-x="1097" d="M59 422v164q0 100 39 189t105.5 154.5t156 104.5t191.5 39q100 0 189 -39t156 -104.5t105.5 -154.5t38.5 -189v-164q0 -35 -12 -78t-39.5 -81t-72 -64.5t-107.5 -26.5h-260q-51 0 -97 20.5t-80 55.5t-54.5 81t-20.5 97v156q0 51 20.5 98t55.5 81t81 54.5t97 20.5 t98 -20.5t81 -54.5t54.5 -81t20.5 -98v-156v-16q0 -6 -2 -17h6q8 0 10 10.5t2 18.5v164q0 55 -21.5 103t-58 84t-86 57.5t-104.5 21.5q-57 0 -106.5 -21.5t-86 -57.5t-57 -84t-20.5 -103v-164q0 -55 21.5 -103.5t58 -84t86 -57t104.5 -21.5h330q29 0 38 -22.5t-10 -43.5 q-68 -72 -160 -112.5t-198 -40.5q-100 0 -189.5 37.5t-157 104t-106.5 155t-39 188.5zM516 426q0 -14 10.5 -23.5t24.5 -9.5t24.5 9.5t10.5 23.5v156q0 14 -10.5 24t-24.5 10t-24.5 -10t-10.5 -24v-156z" />
<glyph unicode="A" horiz-adv-x="1267" d="M35 102q0 10 2 22.5t6 20.5l487 1147q33 68 103 68q35 0 62.5 -20.5t39.5 -47.5l488 -1147q10 -25 10 -43q0 -39 -29.5 -74.5t-81.5 -35.5q-76 0 -102 67l-127 303h-518q-33 -76 -64.5 -151.5t-62.5 -151.5q-16 -35 -43 -51t-60 -16q-51 0 -80.5 35.5t-29.5 74.5z M467 588h330l-164 379q-23 -49 -42.5 -95.5t-40 -91.5t-40.5 -92t-43 -100z" />
<glyph unicode="B" horiz-adv-x="1126" d="M82 113v1126q0 47 32.5 80t80.5 33h385q61 0 115.5 -23.5t95 -63.5t64.5 -93.5t24 -114.5q0 -80 -37 -144q109 -66 173 -176t64 -245q0 -102 -39 -191.5t-106.5 -156t-158.5 -105.5t-193 -39h-387q-47 0 -80 33t-33 80zM305 223h277q57 0 107 21.5t87 57.5t58.5 85 t21.5 105q0 55 -21.5 103t-58.5 84t-88 57.5t-108 23.5h-275v-537zM305 985h277q31 0 52 20.5t21 51.5t-22.5 51t-52.5 20h-275v-143z" />
<glyph unicode="C" horiz-adv-x="1085" d="M63 455v444q0 102 39 193.5t106.5 159t159 106.5t195.5 39q76 0 145.5 -21.5t129 -61.5t105.5 -94.5t75 -119.5q8 -14 11 -30.5t3 -29.5q0 -41 -28.5 -75.5t-81.5 -34.5q-70 0 -103 67q-31 76 -99.5 125t-156.5 49q-57 0 -107 -21.5t-88 -58t-59.5 -87t-21.5 -105.5v-444 q0 -55 22.5 -105.5t60.5 -87.5t88 -58.5t105 -21.5q88 0 156.5 50.5t101.5 125.5q14 29 44 47.5t57 18.5q51 0 80.5 -35t29.5 -76q0 -25 -8 -43q-27 -70 -73 -127t-105.5 -99t-131 -64.5t-151.5 -22.5q-102 0 -193 40t-159 107.5t-108 158t-40 192.5z" />
<glyph unicode="D" horiz-adv-x="1142" d="M82 113v1126q0 47 32.5 80t80.5 33h385q104 0 195 -39t158.5 -105.5t106.5 -155.5t39 -192v-368q0 -102 -39 -191.5t-106.5 -156t-158.5 -105.5t-193 -39h-387q-47 0 -80 33t-33 80zM305 223h277q57 0 107 21.5t87 57.5t58.5 85t21.5 105v368q0 55 -21.5 104.5t-58.5 85 t-88 57t-108 21.5h-275v-905z" />
<glyph unicode="E" horiz-adv-x="1155" d="M82 113v1126q0 47 32.5 80t80.5 33h774q47 0 78.5 -33t31.5 -80q0 -45 -31.5 -78t-78.5 -33h-664v-360h191q47 0 78.5 -31.5t31.5 -79.5q0 -47 -31.5 -79.5t-78.5 -32.5h-191v-322h664q47 0 78.5 -31.5t31.5 -78.5t-31.5 -80t-78.5 -33h-774q-47 0 -80 33t-33 80z" />
<glyph unicode="F" horiz-adv-x="1103" d="M61 104v1135q0 47 31 78t76 35h780q47 0 79 -33t32 -80q0 -45 -32 -78t-79 -33h-663v-360h190q47 0 79 -31.5t32 -79.5q0 -47 -32 -79.5t-79 -32.5h-190v-441q0 -47 -32 -79.5t-79 -32.5t-80 32.5t-33 79.5z" />
<glyph unicode="G" horiz-adv-x="1122" d="M66 455v442q0 102 39.5 193.5t107.5 159t159 106.5t193 39q78 0 149.5 -22.5t132 -63.5t106.5 -98.5t75 -127.5q4 -10 5 -21t1 -24q0 -41 -28.5 -75.5t-81.5 -34.5q-29 0 -57.5 16.5t-43.5 48.5q-33 78 -101.5 127t-156.5 49q-57 0 -107 -21.5t-87 -58t-58.5 -87 t-21.5 -105.5v-442q0 -55 21.5 -105.5t59.5 -87.5t88 -58.5t105 -21.5q57 0 107.5 21.5t87.5 58.5t58.5 87t21.5 106v55h-111q-47 0 -79 32.5t-32 80.5q0 45 32 77.5t79 32.5h223q47 0 80 -31.5t33 -78.5v-168q0 -102 -40 -192.5t-107.5 -158t-158.5 -107.5t-194 -40 q-102 0 -193 40t-159 107.5t-107.5 158t-39.5 192.5z" />
<glyph unicode="H" horiz-adv-x="1161" d="M82 104v1135q0 47 32.5 80t80.5 33q47 0 78.5 -33t31.5 -80v-471h551v471q0 47 33 80t80 33t78.5 -33t31.5 -80v-1135q0 -47 -32.5 -79.5t-77.5 -32.5q-47 0 -80 32.5t-33 79.5v441h-551v-441q0 -47 -32.5 -79.5t-77.5 -32.5q-47 0 -80 32.5t-33 79.5z" />
<glyph unicode="I" horiz-adv-x="391" d="M80 104v1135q0 47 32.5 80t80.5 33q45 0 78.5 -33t33.5 -80v-1135q0 -47 -32.5 -79.5t-79.5 -32.5q-45 0 -79 32.5t-34 79.5z" />
<glyph unicode="J" horiz-adv-x="356" d="M-203 70q0 47 33 79.5t80 32.5q66 0 113 45t51 111v901q0 47 32.5 80t79.5 33t79 -33t32 -80v-895q0 -80 -30.5 -150.5t-83 -123t-123 -83t-150.5 -30.5q-47 0 -80 33t-33 80z" />
<glyph unicode="K" d="M59 104v1143q0 47 33 80t80 33q45 0 78 -33t33 -80v-246q100 80 200.5 167t200.5 167q33 25 70 25q43 0 76.5 -32t33.5 -81q0 -25 -9 -48t-30 -40l-366 -301l487 -682q29 -35 29 -74q0 -43 -32 -76.5t-79 -33.5q-51 0 -88 39l-489 700l-4 -4v-623q0 -47 -32 -79.5 t-79 -32.5t-80 32.5t-33 79.5z" />
<glyph unicode="L" horiz-adv-x="1087" d="M51 113v1134q0 47 33 80t80 33q45 0 77.5 -33t32.5 -80v-1024h664q47 0 79 -31.5t32 -78.5t-32 -80t-79 -33h-774q-47 0 -80 33t-33 80z" />
<glyph unicode="M" horiz-adv-x="1789" d="M76 104v758q0 102 35.5 192.5t99 158t151 107.5t191.5 40q111 0 196 -41t144 -107q63 61 149 104.5t191 43.5q102 0 190 -40t152.5 -107.5t100.5 -157.5t36 -193v-749q0 -47 -32.5 -80t-77.5 -33q-47 0 -80 33t-33 80v749q0 55 -18.5 105.5t-52.5 87.5t-81 58.5 t-104 21.5q-55 0 -97 -21.5t-71 -58.5t-44 -87t-15 -106v-758q0 -47 -33 -79.5t-80 -32.5t-79 32.5t-32 79.5v760q0 55 -16 104.5t-45 86.5t-72 58.5t-96 21.5q-55 0 -102.5 -21.5t-81 -58.5t-52 -87t-18.5 -106v-758q0 -47 -33 -79.5t-80 -32.5t-78.5 32.5t-31.5 79.5z" />
<glyph unicode="N" horiz-adv-x="1144" d="M74 104v758q0 102 39 192.5t106.5 158t158.5 107.5t193 40t193.5 -40t159 -107.5t107.5 -157.5t40 -193v-758q0 -47 -31.5 -79.5t-78.5 -32.5q-45 0 -79 32.5t-34 79.5v758q0 55 -21.5 105.5t-59.5 87.5t-88 58.5t-108 21.5q-57 0 -107 -21.5t-87 -58.5t-58.5 -87 t-21.5 -106v-758q0 -47 -32 -79.5t-79 -32.5t-79.5 32.5t-32.5 79.5z" />
<glyph unicode="O" horiz-adv-x="1130" d="M66 455v442q0 102 39.5 193.5t107.5 159t159 106.5t193 39t193.5 -39t159 -106.5t107.5 -159t40 -193.5v-442q0 -102 -40 -192.5t-107.5 -158t-158.5 -107.5t-194 -40q-102 0 -193 40t-159 107.5t-107.5 158t-39.5 192.5zM291 455q0 -55 21.5 -105.5t59.5 -87.5t88 -58.5 t105 -21.5q57 0 107.5 21.5t87.5 58.5t58.5 87t21.5 106v442q0 55 -21.5 105.5t-59.5 87t-88 58t-106 21.5q-57 0 -107 -21.5t-87 -58t-58.5 -87t-21.5 -105.5v-442z" />
<glyph unicode="P" horiz-adv-x="1101" d="M59 104v1135q0 47 33 80t80 33h387q102 0 192.5 -39t158 -105.5t107.5 -155.5t40 -192q0 -102 -39 -192t-106.5 -157t-158.5 -105.5t-194 -38.5h-276v-263q0 -47 -32 -79.5t-79 -32.5t-80 32.5t-33 79.5zM283 592h276q57 0 107.5 20.5t87.5 57.5t58.5 86t21.5 104 t-21.5 104.5t-59.5 85t-88.5 57t-105.5 21.5h-276v-536z" />
<glyph unicode="Q" d="M53 446v453q0 102 40 193.5t107.5 159t159 106.5t193.5 39t193.5 -39t159 -106.5t107.5 -159t40 -193.5v-453q0 -88 -30 -166.5t-81 -143t-122.5 -109.5t-153.5 -64v-98q0 -47 -33 -80t-80 -33q-45 0 -78 33t-33 80v98q-84 18 -154.5 63.5t-122.5 110t-82 143t-30 166.5z M279 446q0 -55 21.5 -105t59 -87t88 -58.5t105.5 -21.5q57 0 107.5 21.5t87 58.5t58 87t21.5 105v453q0 55 -21.5 105.5t-59 87t-88 58t-105.5 21.5q-57 0 -107.5 -21.5t-87 -58t-58 -87t-21.5 -105.5v-453z" />
<glyph unicode="R" horiz-adv-x="1148" d="M72 104v1135q0 47 32.5 80t79.5 33h387q102 0 193.5 -39t159 -105.5t106.5 -155.5t39 -192q0 -137 -61.5 -246.5t-171.5 -173.5q53 -66 111.5 -133t111.5 -129q27 -33 26 -74q0 -47 -32.5 -80.5t-79.5 -33.5t-84 37l-262 313v-2q-12 12 -25.5 20.5t-28.5 8.5h-278v-263 q0 -47 -33 -79.5t-78 -32.5q-47 0 -79.5 32.5t-32.5 79.5zM295 592h276q55 0 105.5 20.5t88.5 57.5t59.5 86t21.5 104t-21.5 104.5t-58.5 85t-87 57t-108 21.5h-276v-536z" />
<glyph unicode="S" d="M42 398q13 26 37.5 43.5t57.5 17.5q47 0 81 -30t50 -75q31 -66 106 -116t179 -50q55 0 108.5 13.5t94.5 40t66.5 66.5t25.5 95t-24.5 95.5t-65.5 66t-94.5 38.5t-110.5 13q-104 0 -191.5 23t-152 69t-100 118.5t-35.5 174.5q0 92 33.5 166t96 125t151.5 78t198 27 q2 0 50 -4t113.5 -25.5t136.5 -67t120 -129.5q6 -12 12 -30.5t6 -36.5q0 -39 -31.5 -76t-85.5 -37q-27 0 -51 11.5t-41 29.5l2 -2q-23 27 -45 51.5t-48.5 43t-60.5 29.5t-79 11q-133 0 -190.5 -51t-57.5 -113q0 -43 19.5 -72.5t53.5 -48t80 -26.5t97 -8q106 0 202.5 -29 t169 -84t114.5 -138t42 -192q0 -113 -43 -196.5t-115.5 -139t-171 -83t-208.5 -27.5q-23 0 -84.5 7t-138 39t-153.5 97.5t-128 182.5q-13 23 -13 50q0 35 16 65z" />
<glyph unicode="T" horiz-adv-x="1062" d="M33 1239q0 47 31.5 80t78.5 33h775q47 0 79.5 -33t32.5 -80q0 -45 -32.5 -78t-79.5 -33h-275v-1024q0 -47 -32.5 -79.5t-80.5 -32.5q-45 0 -78.5 32.5t-33.5 79.5v1024h-275q-47 0 -78.5 32t-31.5 79z" />
<glyph unicode="U" horiz-adv-x="1142" d="M72 457v790q0 47 32.5 80t79.5 33q45 0 78 -33t33 -80v-790q0 -55 22.5 -105.5t60.5 -87.5t88 -58.5t105 -21.5q57 0 107.5 21.5t87.5 58.5t58.5 87t21.5 106v790q0 47 32.5 80t79.5 33q45 0 78 -33t33 -80v-790q0 -102 -39 -192.5t-106.5 -158t-158.5 -107.5t-194 -40 q-102 0 -193 40t-158.5 107.5t-107.5 158t-40 192.5z" />
<glyph unicode="V" horiz-adv-x="1267" d="M35 1241q0 43 29.5 78t80.5 35q33 0 59.5 -16.5t43.5 -51.5l385 -899q98 225 194.5 450.5t192.5 448.5q27 68 102 68q51 0 81 -35t30 -78q0 -10 -2 -21.5t-8 -21.5l-488 -1139q-14 -39 -59 -59q-16 -8 -43 -8q-70 0 -103 67l-487 1139q-8 14 -8 43z" />
<glyph unicode="W" horiz-adv-x="1789" d="M76 487v760q0 47 32.5 80t77.5 33q47 0 80 -33t33 -80v-760q0 -55 18.5 -105t52 -87t81 -58.5t104.5 -21.5q55 0 97 21.5t71 58.5t44 87t15 105v760q0 47 32 80t79 33t80 -33t33 -80v-762q0 -55 15 -104t45 -86t73 -58.5t96 -21.5q55 0 102 21.5t81 58.5t52.5 87 t18.5 105v760q0 47 32.5 80t80.5 33q47 0 78.5 -33t31.5 -80v-760q0 -102 -36 -192t-99.5 -157.5t-150.5 -107.5t-191 -40q-111 0 -197 40t-145 105q-66 -66 -146.5 -105.5t-191.5 -39.5q-102 0 -190.5 40t-153 107.5t-100 157.5t-35.5 192z" />
<glyph unicode="X" horiz-adv-x="1241" d="M78 104q0 41 24 72q98 129 189.5 251t189.5 251l-379 500q-25 31 -24 69q0 45 31.5 79t83.5 34q23 0 46 -9.5t40 -31.5l344 -455q86 113 171 228.5t171 226.5q16 23 39.5 32t46.5 9q51 0 81.5 -34t30.5 -79q0 -16 -4 -34.5t-18 -34.5q-98 -129 -189.5 -250t-189.5 -250 q98 -125 190 -251t189 -251q14 -16 18 -34.5t4 -37.5q0 -43 -30.5 -77.5t-81.5 -34.5q-49 0 -86 43l-342 454q-86 -111 -172 -227.5t-172 -226.5q-37 -43 -86 -43q-51 0 -83 34.5t-32 77.5z" />
<glyph unicode="Y" horiz-adv-x="1093" d="M47 862v385q0 47 33 80t80 33q45 0 78.5 -33t33.5 -80v-385q0 -55 21.5 -104t59.5 -86t88.5 -58.5t107.5 -21.5t106.5 21.5t86 58.5t58 86t21.5 104v385q0 47 33 80t80 33q45 0 79 -33t34 -80v-385q0 -86 -30 -165t-81 -143.5t-123 -109.5t-154 -63v-277 q0 -47 -31.5 -79.5t-78.5 -32.5t-80 32.5t-33 79.5v277q-84 18 -154.5 63t-123 109.5t-82 143.5t-29.5 165z" />
<glyph unicode="Z" horiz-adv-x="1183" d="M74 111q0 14 5 31.5t15 33.5q166 236 334 473.5t338 478.5h-557q-47 0 -80 32t-33 79t33 80t80 33h754q55 0 94 -28t39 -81q0 -12 -5.5 -30.5t-15.5 -36.5l-672 -953h594q47 0 80 -31.5t33 -78.5t-33 -80t-80 -33h-796q-59 0 -93 32t-34 79z" />
<glyph unicode="[" horiz-adv-x="618" d="M82 -299v1587q0 47 32.5 79t78.5 32h270q47 0 78.5 -33t31.5 -78t-31.5 -76.5t-78.5 -31.5h-160v-1370h160q47 0 78.5 -32t31.5 -77t-31.5 -78t-78.5 -33h-270q-45 0 -78 32t-33 79z" />
<glyph unicode="\" horiz-adv-x="1085" d="M8 1219q0 45 32 77.5t83 32.5q23 0 44 -9t38 -32l848 -1108q23 -29 22 -69q0 -41 -30.5 -76t-79.5 -35q-23 0 -45.5 10t-38.5 31l-848 1110q-25 31 -25 68z" />
<glyph unicode="]" horiz-adv-x="620" d="M45 -299q0 45 32 77t79 32h161v1370h-161q-47 0 -79 31.5t-32 76.5t32 78t79 33h270q45 0 78 -32t33 -79v-1587q0 -47 -33 -79t-78 -32h-270q-47 0 -79 33t-32 78z" />
<glyph unicode="^" horiz-adv-x="1001" d="M43 954q0 23 10 44.5t31 37.5l350 269q33 23 64 22q41 0 71 -24l349 -267q23 -16 30.5 -37.5t7.5 -44.5q0 -51 -32.5 -82.5t-77.5 -31.5q-37 0 -68 24q-66 49 -137.5 105.5t-140.5 109.5q-72 -55 -138.5 -108t-138.5 -107q-31 -25 -69 -24q-41 0 -76 31.5t-35 82.5z" />
<glyph unicode="_" horiz-adv-x="1132" d="M76 -41q0 45 31.5 77t78.5 32h760q47 0 79 -33t32 -76q0 -47 -32 -79t-79 -32h-760q-47 0 -78.5 33t-31.5 78z" />
<glyph unicode="`" horiz-adv-x="385" d="M43 1227q0 43 33 75.5t80 32.5q59 0 92 -53l78 -135q10 -16 12 -30.5t2 -26.5q0 -45 -30.5 -77t-78.5 -32q-59 0 -94 53l-78 135v-2q-16 27 -16 60z" />
<glyph unicode="a" horiz-adv-x="899" d="M63 371v274q0 78 30 146.5t82 121t121 82t148 29.5q78 0 148 -29.5t122 -82t81.5 -121t29.5 -146.5v-534q0 -47 -32.5 -79t-75.5 -32q-23 0 -46.5 12.5t-39.5 26.5q-88 -47 -187 -47q-78 0 -147.5 29.5t-121.5 82t-82 121t-30 146.5zM285 371q0 -66 47 -112t112 -46 q66 0 112 43t50 106v283q0 33 -13 61.5t-34.5 50t-51.5 34t-63 12.5q-68 0 -113.5 -46t-45.5 -112v-274z" />
<glyph unicode="b" horiz-adv-x="882" d="M53 371v862q0 47 32 78.5t79 31.5q43 0 75.5 -31.5t32.5 -78.5v-246q37 16 77 26.5t85 10.5q80 0 148.5 -29.5t121 -82t82 -121t29.5 -146.5v-274q0 -78 -29.5 -146.5t-82 -121t-122 -82t-147.5 -29.5q-80 0 -148.5 29.5t-120.5 82t-82 121t-30 146.5zM272 371 q0 -66 47.5 -112t114.5 -46q33 0 62.5 12.5t51 34t35 50t13.5 61.5v274q0 66 -47 112t-115 46q-66 0 -112 -44t-50 -108v-280z" />
<glyph unicode="c" horiz-adv-x="854" d="M61 371v274q0 80 31 149.5t84 120t124 80t151 29.5q14 0 57 -6t95 -29.5t104.5 -71t87.5 -131.5q4 -8 6 -18t2 -20q0 -47 -32 -79t-79 -32q-33 0 -60.5 18.5t-39.5 49.5q-20 45 -61.5 71.5t-88.5 26.5q-68 0 -114.5 -46t-46.5 -112v-274q0 -33 13 -61.5t34.5 -50 t51.5 -34t62 -12.5q47 0 88 25.5t62 72.5q12 29 38.5 48.5t61.5 19.5q47 0 79 -33t32 -78q0 -16 -10 -41q-41 -92 -100.5 -140t-115 -69.5t-94.5 -23.5t-41 -2q-78 0 -147.5 29.5t-121.5 82t-82 121t-30 146.5z" />
<glyph unicode="d" horiz-adv-x="905" d="M68 371v274q0 78 29.5 146.5t81.5 121t122 82t148 29.5q43 0 82.5 -11.5t76.5 -27.5v248q0 47 33 78.5t78 31.5t77.5 -31.5t32.5 -78.5v-862q0 -78 -29.5 -146.5t-81.5 -121t-122 -82t-147 -29.5q-80 0 -149 29.5t-121 82t-81.5 121t-29.5 146.5zM287 371q0 -66 46 -112 t116 -46q66 0 112.5 46t46.5 112v274q0 66 -46 112t-113 46q-33 0 -63 -12.5t-51.5 -34t-34.5 -50t-13 -61.5v-274z" />
<glyph unicode="e" horiz-adv-x="882" d="M63 371v274q0 78 30 146.5t82 121t121 82t148 29.5q78 0 148 -29.5t122 -82t81.5 -121t29.5 -146.5v-137q0 -47 -31.5 -79t-76.5 -32h-432v-26q0 -66 47 -112t112 -46q25 0 56.5 6t60.5 41q12 14 30.5 29.5t40 24t46 7t49.5 -19.5q33 -23 44 -64q3 -11 3 -22 q0 -32 -24 -68q-45 -59 -117 -107t-189 -48q-78 0 -147.5 29.5t-121.5 82t-82 121t-30 146.5zM285 618h321v27q0 33 -13 61.5t-34.5 50t-51.5 34t-63 12.5q-68 0 -113.5 -46t-45.5 -112v-27z" />
<glyph unicode="f" horiz-adv-x="856" d="M76 102v869q0 80 30.5 149.5t83 119.5t123 80t150.5 30q14 0 55 -5.5t93.5 -29t105.5 -71.5t90 -132q10 -25 10 -39q0 -47 -31.5 -78.5t-78.5 -31.5q-76 0 -103 69l2 -2q-20 47 -61 73.5t-88 26.5q-33 0 -62.5 -13t-51 -34.5t-35 -50t-13.5 -61.5v-353h168 q45 0 76.5 -32.5t31.5 -77.5q0 -47 -31.5 -79t-76.5 -32h-168v-295q0 -47 -33 -78.5t-78 -31.5t-76.5 31.5t-31.5 78.5z" />
<glyph unicode="g" horiz-adv-x="876" d="M45 371v274q0 78 29.5 146.5t82 121t121 82t148.5 29.5q78 0 146.5 -29.5t120.5 -82t83 -121t31 -146.5v-600q0 -78 -31 -147.5t-83 -120.5t-120.5 -81t-146.5 -30q-47 0 -79 32t-32 79q0 45 32 76.5t79 31.5q59 0 105.5 42t52.5 102q-74 -37 -158 -37q-78 0 -147.5 29.5 t-122 82t-82 121t-29.5 146.5zM264 371q0 -33 13.5 -61.5t35 -50t51 -34t62.5 -12.5q63 0 109.5 43t50.5 106v283q0 66 -47 112t-113 46q-70 0 -116 -46t-46 -112v-274z" />
<glyph unicode="h" horiz-adv-x="880" d="M82 102v1131q0 47 31.5 78.5t79.5 31.5q43 0 75.5 -31.5t32.5 -78.5v-246q37 16 77 26.5t85 10.5q78 0 147.5 -29.5t121.5 -82t82 -121t30 -146.5v-543q0 -47 -33 -78.5t-78 -31.5t-76.5 31.5t-31.5 78.5v543q0 66 -48.5 112t-113.5 46q-68 0 -113 -44t-49 -110v-547 q0 -47 -32.5 -78.5t-75.5 -31.5q-47 0 -79 31.5t-32 78.5z" />
<glyph unicode="i" horiz-adv-x="380" d="M80 102v811q0 47 31.5 79t76.5 32t78 -31.5t33 -79.5v-811q0 -47 -31.5 -78.5t-79.5 -31.5q-43 0 -75.5 31.5t-32.5 78.5zM80 1184v55q0 47 31.5 79t76.5 32t78 -32t33 -79v-55q0 -45 -31.5 -77t-79.5 -32q-43 0 -75.5 32t-32.5 77z" />
<glyph unicode="j" horiz-adv-x="362" d="M-201 -223q0 45 32 76.5t77 31.5q66 0 112 45t50 109v874q0 47 32.5 79t77.5 32t77 -31.5t32 -79.5v-868q0 -78 -30 -147.5t-82 -120.5t-121.5 -81t-147.5 -30q-45 0 -77 32t-32 79zM70 1184v55q0 47 31.5 79t78.5 32q43 0 76 -32t33 -79v-55q0 -45 -32 -77t-77 -32 t-77.5 32t-32.5 77z" />
<glyph unicode="k" horiz-adv-x="917" d="M82 102v1131q0 47 31.5 78.5t79.5 31.5q43 0 75.5 -31.5t32.5 -78.5v-485q78 61 156 124l155 127q31 25 70 25q41 0 73.5 -30.5t32.5 -80.5q0 -25 -8 -47t-28 -39l-277 -223q92 -111 178 -216t181 -216q27 -33 26 -72q0 -41 -31.5 -74.5t-76.5 -33.5q-53 0 -86 39 l-363 438l-2 -2v-365q0 -47 -31.5 -78.5t-76.5 -31.5t-78 31.5t-33 78.5z" />
<glyph unicode="l" horiz-adv-x="385" d="M80 102v1131q0 47 31.5 78.5t76.5 31.5t78 -31.5t33 -78.5v-1131q0 -47 -31.5 -78.5t-79.5 -31.5q-43 0 -75.5 31.5t-32.5 78.5z" />
<glyph unicode="m" horiz-adv-x="1380" d="M76 102v543q0 78 26.5 146.5t74.5 121t113.5 82t145.5 29.5q76 0 140.5 -28.5t111.5 -75.5q49 51 111.5 77.5t142.5 26.5q78 0 144.5 -29.5t114.5 -82t75 -121t27 -146.5v-543q0 -47 -33 -78.5t-76 -31.5q-47 0 -79 31.5t-32 78.5v543q0 66 -38.5 112t-102.5 46 q-68 0 -105.5 -46t-37.5 -112v-543q0 -47 -33 -78.5t-78 -31.5t-76.5 31.5t-31.5 78.5v543q0 66 -39 112t-105 46t-103.5 -46t-37.5 -112v-543q0 -47 -33 -78.5t-78 -31.5t-76.5 31.5t-31.5 78.5z" />
<glyph unicode="n" horiz-adv-x="907" d="M72 102v543q0 78 29.5 146.5t82 121t121 82t148.5 29.5q78 0 147.5 -29.5t121.5 -82t82 -121t30 -146.5v-543q0 -47 -33 -78.5t-78 -31.5t-77 31.5t-32 78.5v543q0 33 -13 61.5t-34.5 50t-51.5 34t-62 12.5q-68 0 -115 -46t-47 -112v-543q0 -47 -33 -78.5t-76 -31.5 q-47 0 -78.5 31.5t-31.5 78.5z" />
<glyph unicode="o" horiz-adv-x="888" d="M63 371v274q0 78 30 146.5t82 121t121 82t148 29.5q78 0 148 -29.5t122 -82t81.5 -121t29.5 -146.5v-274q0 -78 -29.5 -146.5t-81.5 -121t-121 -82t-149 -29.5q-78 0 -147.5 29.5t-121.5 82t-82 121t-30 146.5zM285 371q0 -66 47 -112t112 -46q70 0 116 46t46 112v274 q0 33 -13 61.5t-34.5 50t-51.5 34t-63 12.5q-68 0 -113.5 -46t-45.5 -112v-274z" />
<glyph unicode="p" horiz-adv-x="905" d="M76 -223v868q0 78 29.5 146.5t82 121t121 82t148.5 29.5q78 0 147.5 -29.5t121.5 -82t82 -121t30 -146.5v-274q0 -78 -30 -146.5t-82 -121t-120.5 -82t-148.5 -29.5q-43 0 -85 10t-77 27v-252q0 -47 -33 -79t-76 -32q-47 0 -78.5 32t-31.5 79zM295 371q0 -33 13.5 -61.5 t35 -50t51 -34t62.5 -12.5q68 0 114.5 46t46.5 112v274q0 33 -13 61.5t-34.5 50t-51.5 34t-62 12.5q-68 0 -115 -46t-47 -112v-274z" />
<glyph unicode="q" horiz-adv-x="899" d="M61 371v274q0 78 30 146.5t82 121t122 82t147 29.5q80 0 148.5 -29.5t121 -82t82 -121t29.5 -146.5v-868q0 -47 -31.5 -79t-78.5 -32q-45 0 -78 32t-33 79v252q-37 -16 -76 -26.5t-84 -10.5q-80 0 -148.5 29.5t-120.5 82t-82 121t-30 146.5zM281 371q0 -66 46 -112 t115 -46q66 0 113 46t47 112v274q0 66 -46 112t-114 46q-33 0 -62.5 -12.5t-51 -34t-34.5 -50t-13 -61.5v-274z" />
<glyph unicode="r" horiz-adv-x="772" d="M80 102v803q0 47 31.5 79t76.5 32q51 0 86 -41q88 49 193 49l39 -4q39 -4 85 -18.5t85 -45t39 -82.5q0 -49 -32 -79.5t-79 -30.5q-35 0 -65 20q-18 10 -37 14.5t-41 4.5q-68 0 -113 -44t-49 -108v-549q0 -47 -31.5 -78.5t-79.5 -31.5q-43 0 -75.5 31.5t-32.5 78.5z" />
<glyph unicode="s" horiz-adv-x="872" d="M57 268q0 45 32 78t79 33q35 0 61.5 -19.5t38.5 -48.5q20 -47 69.5 -72.5t98.5 -25.5q66 0 114 21.5t48 80.5t-46 81t-116 22q-78 0 -144.5 15.5t-114.5 50t-74.5 93t-26.5 144.5q0 68 26.5 123t74.5 95t114.5 62.5t144.5 22.5q63 -2 123 -20q51 -16 104.5 -49t88.5 -95 q18 -31 18 -61q0 -45 -30.5 -77t-75.5 -32q-23 0 -47.5 11.5t-41.5 33.5v-2q-29 37 -59.5 53.5t-79.5 16.5q-63 0 -102 -23.5t-39 -58.5q0 -47 38 -65.5t103 -18.5q78 0 147.5 -20.5t122 -61.5t82 -100.5t29.5 -139.5q0 -82 -30.5 -142t-83 -100t-123 -60.5t-148.5 -20.5 q-16 0 -61 5t-100.5 27.5t-112 70.5t-92.5 132q-9 16 -9 41z" />
<glyph unicode="t" horiz-adv-x="874" d="M74 371v848q0 47 31.5 78.5t76.5 31.5t78 -31.5t33 -78.5v-203h330q47 0 78.5 -32t31.5 -79q0 -43 -31.5 -75.5t-78.5 -32.5h-330v-426q0 -33 13 -61.5t34.5 -50t51.5 -34t63 -12.5q47 0 88 25.5t61 72.5q12 29 39 48.5t62 19.5q47 0 78.5 -33t31.5 -78q0 -16 -10 -41 q-41 -92 -100.5 -140t-114.5 -69.5t-94 -23.5t-41 -2q-78 0 -147.5 29.5t-122 82t-82 121t-29.5 146.5z" />
<glyph unicode="u" horiz-adv-x="907" d="M72 371v542q0 47 31.5 79t78.5 32q43 0 76 -31.5t33 -79.5v-542q0 -66 47 -112t115 -46q33 0 62.5 12.5t51 34t34.5 50t13 61.5v542q0 47 32 79t77 32t78 -31.5t33 -79.5v-542q0 -78 -30 -146.5t-82 -121t-122 -82t-147 -29.5q-80 0 -148.5 29.5t-121 82t-82 121 t-29.5 146.5z" />
<glyph unicode="v" horiz-adv-x="983" d="M37 913q0 41 28.5 76t79.5 35q33 0 59.5 -16.5t41.5 -49.5l246 -579q59 135 124.5 289.5t122.5 289.5q29 66 101 66q49 0 77.5 -35t28.5 -76q0 -10 -2 -21t-6 -22l-346 -811q-29 -68 -100 -67q-76 0 -103 69l2 -2l-346 811q-8 16 -8 43z" />
<glyph unicode="w" horiz-adv-x="1380" d="M76 371v542q0 47 32.5 79t75.5 32q47 0 79 -31.5t32 -79.5v-542q0 -66 39 -112t102 -46q68 0 106 46t38 112v542q0 47 32.5 79t75.5 32q47 0 79 -31.5t32 -79.5v-542q0 -66 39 -112t104 -46q66 0 103.5 46t37.5 112v542q0 47 33 79t78 32t77 -31.5t32 -79.5v-542 q0 -78 -27 -146.5t-75 -121t-113.5 -82t-145.5 -29.5q-78 0 -141.5 28.5t-112.5 75.5q-47 -51 -109.5 -77.5t-142.5 -26.5q-78 0 -144.5 29.5t-114.5 82t-74.5 121t-26.5 146.5z" />
<glyph unicode="x" horiz-adv-x="1030" d="M78 102q0 41 24 72q72 88 134.5 167t134.5 167l-269 336h2q-14 16 -20 34.5t-6 34.5q0 45 31.5 78t83.5 33q23 0 44 -8t37 -31q33 -41 63 -76t58.5 -69.5t57 -70.5t63.5 -77q59 72 119.5 146.5t120.5 146.5q16 23 38.5 31t45.5 8q49 0 80.5 -33t31.5 -78q0 -39 -24 -69 q-70 -84 -135.5 -168t-137.5 -170q70 -84 136.5 -166t136.5 -166q25 -31 24 -72q0 -41 -31.5 -75.5t-80.5 -34.5q-47 0 -84 41q-33 41 -62.5 75.5t-57.5 68.5t-57.5 70t-62.5 77q-59 -72 -120.5 -146t-121.5 -145q-16 -18 -37.5 -29.5t-43.5 -11.5q-51 0 -83 34.5t-32 75.5z " />
<glyph unicode="y" horiz-adv-x="868" d="M53 354v559q0 47 32 79t79 32q45 0 77.5 -31.5t32.5 -79.5v-559q0 -66 46.5 -111.5t113.5 -45.5q33 0 62.5 12t51 33.5t35 50.5t13.5 61v559q0 47 31.5 79t79.5 32q43 0 75.5 -31.5t32.5 -79.5v-559q0 -66 -20.5 -124t-56.5 -105t-85 -82t-108 -51v-215q0 -47 -32 -79 t-79 -32q-43 0 -75.5 32t-32.5 79v215q-59 16 -109.5 51t-86.5 82t-56.5 105t-20.5 124z" />
<glyph unicode="z" horiz-adv-x="940" d="M72 109q0 33 22 61q59 86 112.5 163t107 151.5t107.5 151.5t114 163h-322q-47 0 -79 31.5t-32 76.5t32 78t79 33h514q53 0 92 -26.5t39 -80.5q0 -12 -5 -29.5t-17 -35.5l-437 -627h357q45 0 76.5 -31.5t31.5 -76.5t-31.5 -78t-76.5 -33h-559q-57 0 -91 31t-34 78z" />
<glyph unicode="{" horiz-adv-x="743" d="M20 496q0 43 32 75.5t79 32.5h37q10 0 18.5 8.5t8.5 16.5v391q0 78 29.5 147.5t81.5 120.5t122 81t147 30q47 0 79 -32t32 -79q0 -45 -31.5 -76.5t-79.5 -31.5q-63 0 -110 -45t-49 -109v-459q0 -20 -8.5 -38.5t-18.5 -32.5q27 -37 27 -74v-461q2 -61 49 -106t110 -45 q47 0 79 -32t32 -77q0 -47 -31.5 -79t-79.5 -32q-78 0 -147.5 30t-121.5 81t-81.5 120.5t-29.5 147.5v389q0 10 -8.5 18.5t-18.5 8.5h-37q-47 0 -79 32t-32 79z" />
<glyph unicode="|" horiz-adv-x="387" d="M82 -223v1509q0 47 31.5 79t76.5 32t78 -32t33 -79v-1509q0 -47 -31.5 -79t-79.5 -32q-43 0 -75.5 32t-32.5 79z" />
<glyph unicode="}" horiz-adv-x="743" d="M57 -299q0 45 32 77t77 32q66 0 112 45t50 108v459q0 37 26 74q-27 31 -26 71v459q-4 63 -50.5 108.5t-111.5 45.5q-45 0 -77 31.5t-32 76.5q0 47 32 79t77 32q78 0 147.5 -30t121.5 -81t82 -120.5t30 -147.5v-391q0 -8 8 -16.5t18 -8.5h39q45 0 77 -32.5t32 -75.5 q0 -47 -32 -79t-77 -32h-39q-10 0 -18 -8t-8 -19v-389q0 -78 -30 -147.5t-82 -120.5t-121.5 -81t-147.5 -30q-45 0 -77 32t-32 79z" />
<glyph unicode="~" horiz-adv-x="1118" d="M55 434q0 37 25 68q57 70 135 105.5t160 35.5q61 0 122.5 -20.5t116.5 -65.5q45 -37 75 -48t52 -11q76 0 127 61q16 20 39 29.5t47 9.5q47 0 78 -35t31 -76q0 -37 -25 -67q-57 -72 -135 -106.5t-164 -34.5q-59 2 -121.5 21t-115.5 65q-41 37 -72 47t-53 10 q-35 0 -69 -14.5t-58 -42.5q-33 -43 -84 -43q-49 0 -80 35.5t-31 76.5z" />
<glyph unicode="&#xa1;" horiz-adv-x="301" d="M254.005 1249.01v-54.9971q0 -44.9971 -32.498 -76.4951t-75.4951 -31.498q-46.9971 0 -78.9951 31.498t-31.998 76.4951v54.9971q0 46.9971 32.9971 78.9951q32.998 31.998 77.9961 31.998q44.9971 0 76.4951 -31.998t31.498 -78.9951zM254.005 954.024v-818.949 q0 -44.998 -32.498 -77.4961t-75.4951 -32.498q-46.9971 0 -78.9951 32.498t-31.998 77.4961v818.949q0 46.9971 32.9971 78.9951q32.998 31.998 77.9961 31.998q44.9971 0 76.4951 -31.998t31.498 -78.9951z" />
<glyph unicode="&#xa2;" horiz-adv-x="821" d="M45 371v274q0 63 20.5 121.5t56.5 107t86 82t109 52.5v45q0 45 32 76.5t77 31.5t78 -31.5t33 -76.5v-45q31 -8 63.5 -23.5t64 -41t61.5 -64.5t52 -93q4 -10 6 -21t2 -17q0 -47 -31.5 -79t-78.5 -32q-74 0 -101 70v-2q-14 33 -38 53v-502q10 10 22 25.5t16 29.5 q14 29 40 48.5t61 19.5q47 0 78.5 -33t31.5 -78q0 -10 -2 -20t-6 -21q-25 -53 -54.5 -91t-61 -63.5t-64.5 -41t-61 -23.5v-61q0 -47 -32 -79t-79 -32q-43 0 -76 32t-33 79v61q-59 16 -109 51t-86 82t-56.5 105.5t-20.5 124.5zM266 371q0 -33 14.5 -62.5t36.5 -52.5v506 q-51 -43 -51 -117v-274z" />
<glyph unicode="&#xa3;" d="M43 139q0 29 18.5 57.5t47 53t61.5 43t61 31.5v147h-49q-47 0 -78.5 33t-31.5 78t31.5 77.5t78.5 32.5h49v230q0 86 33 160.5t89.5 131t132 89t161.5 32.5q45 0 101.5 -15t106.5 -42t84 -62.5t34 -76.5q0 -45 -32 -77t-77 -32q-57 0 -90 43q-25 20 -58.5 32.5t-68.5 12.5 q-82 0 -139 -57t-57 -139v-230h251q47 0 79 -31.5t32 -78.5q0 -45 -31.5 -78t-79.5 -33h-251v-133q37 -10 76.5 -29.5t74.5 -46.5l37 -31q16 -14 42 -21t48 -7q35 0 68.5 15t58.5 46v-2q16 23 39 31t47 8q47 0 78 -35t31 -76q0 -37 -25 -67q-57 -70 -135 -104.5t-164 -34.5 q-59 2 -121.5 21.5t-116.5 62.5q-6 8 -16 15t-16 15q-16 14 -43 21.5t-49 7.5q-35 0 -69 -15.5t-58 -45.5v2q-16 -20 -39 -30.5t-45 -10.5q-49 0 -80 35.5t-31 76.5z" />
<glyph unicode="&#xa5;" horiz-adv-x="1093" d="M47 965v274q0 47 33 80t80 33q45 0 78.5 -33t33.5 -80v-274q0 -55 21.5 -104.5t59.5 -86.5t88.5 -58.5t107.5 -21.5t106.5 21.5t86 58.5t58 86t21.5 105v274q0 47 33 80t80 33q45 0 79 -33t34 -80v-274q0 -119 -52.5 -220.5t-142.5 -171.5q29 -12 47.5 -38.5t18.5 -59.5 q0 -45 -32 -77.5t-79 -32.5h-148v-29h148q47 0 79 -32t32 -79q0 -45 -32 -77.5t-79 -32.5h-148v-2q0 -47 -31.5 -80t-78.5 -33t-80 33t-33 80v2h-151q-45 0 -77 32.5t-32 77.5t32 78t77 33h151v29h-151q-45 0 -77 31.5t-32 78.5q0 33 19.5 60.5t48.5 39.5 q-90 68 -143.5 169.5t-53.5 220.5z" />
<glyph unicode="&#xa6;" horiz-adv-x="385" d="M80 -223v612q0 45 31.5 77t76.5 32t78 -32t33 -77v-612q0 -47 -31.5 -79t-79.5 -32q-43 0 -75.5 32t-32.5 79zM80 674v612q0 47 31.5 79t76.5 32t78 -32t33 -79v-612q0 -47 -31.5 -79t-79.5 -32q-43 0 -75.5 32t-32.5 79z" />
<glyph unicode="&#xa8;" horiz-adv-x="610" d="M70 1194v55q0 47 31.5 79t76.5 32t78 -32t33 -79v-55q0 -45 -32 -77t-79 -32q-43 0 -75.5 32t-32.5 77zM319 1194v55q0 47 32 79t77 32t78 -32t33 -79v-55q0 -45 -32 -77t-79 -32q-43 0 -76 32t-33 77z" />
<glyph unicode="&#xa9;" horiz-adv-x="1130" d="M66 455v442q0 102 39.5 193.5t107.5 159t159 106.5t193 39t193.5 -39t159 -106.5t107.5 -159t40 -193.5v-442q0 -102 -40 -192.5t-107.5 -158t-158.5 -107.5t-194 -40q-102 0 -193 40t-159 107.5t-107.5 158t-39.5 192.5zM291 455q0 -55 21.5 -105.5t59.5 -87.5t88 -58.5 t105 -21.5q57 0 107.5 21.5t87.5 58.5t58.5 87t21.5 106v442q0 55 -21.5 105.5t-59.5 87t-88 58t-106 21.5q-57 0 -107 -21.5t-87 -58t-58.5 -87t-21.5 -105.5v-442zM319 610v99q0 119 66 199.5t186 80.5q12 0 42 -3t66 -17.5t69.5 -46t54.5 -88.5q6 -12 6 -29 q0 -35 -23.5 -58.5t-58.5 -23.5q-25 0 -44 14.5t-30 34.5q-16 29 -34.5 41t-53.5 12q-43 0 -63.5 -34.5t-20.5 -81.5v-99q0 -47 19.5 -81.5t60.5 -34.5q35 0 57.5 11t34.5 42q10 23 29.5 36t44.5 13q35 0 58.5 -23.5t23.5 -58.5q0 -14 -8 -31q-29 -59 -69 -90t-77 -45 t-63 -16l-27 -2q-59 0 -104 22.5t-77 60.5t-48.5 89t-16.5 108z" />
<glyph unicode="&#xaa;" horiz-adv-x="864" d="M170.336 911.7v188.107q0 53.5488 20.6357 100.575q20.6357 47.0273 56.4053 83.0703q35.7686 36.042 83.2314 56.2949q47.4629 20.252 101.804 20.252q53.6543 0 101.805 -20.252q48.1504 -20.2529 83.9199 -56.2949q35.7686 -36.043 56.0605 -83.0703 q20.292 -47.0264 20.292 -100.575v-366.604q0 -32.2666 -22.3555 -54.2354t-51.9336 -21.9688q-15.8213 0 -31.9863 8.58203q-16.1641 8.58105 -27.1699 18.1924q-60.5322 -32.2666 -128.632 -32.2666q-53.6533 0 -101.46 20.252q-47.8066 20.2529 -83.5752 56.2949 q-35.7695 36.043 -56.4053 83.0703q-20.6357 47.0264 -20.6357 100.575zM323.042 911.7q0 -45.3105 32.3291 -76.8906q32.3301 -31.5801 77.041 -31.5801q45.3994 0 77.041 29.5205q31.6426 29.5205 34.3936 72.7715v194.286q0 22.6553 -8.94238 42.2217 q-8.94141 19.5654 -23.7314 34.3262q-14.7891 14.7598 -35.4248 23.3418q-20.6357 8.58105 -43.3359 8.58105q-46.7744 0 -78.0723 -31.5801t-31.2979 -76.8906v-188.107z" />
<glyph unicode="&#xab;" horiz-adv-x="948" d="M39 498q0 43 24 73l265 347q16 23 38.5 30.5t45.5 7.5q51 0 81.5 -32.5t30.5 -75.5q0 -39 -22 -70q-51 -66 -107.5 -137.5t-107.5 -140.5q55 -72 107 -138.5t108 -138.5q23 -29 22 -69q0 -41 -30.5 -76t-81.5 -35q-47 0 -84 43l-267 348q-22 29 -22 64zM385 498 q0 43 25 73l264 347q16 23 38.5 30.5t45.5 7.5q49 0 80.5 -32.5t31.5 -75.5q0 -39 -24 -70q-49 -66 -105.5 -137.5t-107.5 -140.5q55 -72 106.5 -138.5t106.5 -138.5q14 -16 19 -33.5t5 -35.5q0 -41 -31.5 -76t-80.5 -35q-51 0 -84 43l-266 348q-23 29 -23 64z" />
<glyph unicode="&#xad;" horiz-adv-x="890" d="M74 573q0 43 31.5 76t76.5 33h523q47 0 78.5 -32t31.5 -77t-31.5 -77.5t-78.5 -32.5h-523q-45 0 -76.5 31.5t-31.5 78.5z" />
<glyph unicode="&#xae;" horiz-adv-x="1130" d="M66 455v442q0 102 39.5 193.5t107.5 159t159 106.5t193 39t193.5 -39t159 -106.5t107.5 -159t40 -193.5v-442q0 -102 -40 -192.5t-107.5 -158t-158.5 -107.5t-194 -40q-102 0 -193 40t-159 107.5t-107.5 158t-39.5 192.5zM291 455q0 -55 21.5 -105.5t59.5 -87.5t88 -58.5 t105 -21.5q57 0 107.5 21.5t87.5 58.5t58.5 87t21.5 106v442q0 55 -21.5 105.5t-59.5 87t-88 58t-106 21.5q-57 0 -107 -21.5t-87 -58t-58.5 -87t-21.5 -105.5v-442zM330 434v488q0 31 20.5 51t50.5 20h154q102 0 163.5 -49t81 -114.5t-6 -131t-97.5 -98.5l92 -135 q31 -53 -20 -92q-16 -12 -31.5 -11.5t-30 8t-24.5 17.5l-16 16l-109 152h-88v-121q0 -31 -19.5 -51.5t-48.5 -20.5q-31 0 -51 20.5t-20 51.5zM469 696h86q72 0 94.5 18.5t22.5 65.5q0 37 -31 55.5t-86 18.5h-86v-158z" />
<glyph unicode="&#xb0;" horiz-adv-x="614" d="M57 1081q0 51 19.5 97.5t53.5 81t79 54t98 19.5q51 0 97.5 -19.5t80 -54t53 -80.5t19.5 -98q0 -51 -19.5 -97t-53 -80t-80 -53.5t-97.5 -19.5q-53 0 -98 19.5t-79 53.5t-53.5 80t-19.5 97zM279 1081q0 -27 28 -26q10 0 19.5 8t9.5 18q0 12 -9.5 20.5t-19.5 8.5 q-28 0 -28 -29z" />
<glyph unicode="&#xb1;" horiz-adv-x="835" d="M47 172q0 45 32 78t79 33h522q45 0 76.5 -32t31.5 -79q0 -43 -31.5 -76t-76.5 -33h-522q-47 0 -79 32t-32 77zM47 670q0 43 32 75.5t79 32.5h149v150q0 47 32 78.5t79 31.5q45 0 76.5 -31.5t31.5 -78.5v-150h154q45 0 76.5 -31.5t31.5 -76.5t-31.5 -78t-76.5 -33h-154 v-151q0 -47 -31.5 -79t-76.5 -32t-78 31.5t-33 79.5v151h-149q-47 0 -79 32t-32 79z" />
<glyph unicode="&#xb2;" horiz-adv-x="978" d="M63 111q0 41 27 71l547 676q18 18 30.5 54t12.5 67v2q0 82 -57.5 138.5t-141.5 56.5q-39 0 -74.5 -14.5t-63.5 -40t-44 -60.5t-16 -74q0 -47 -32 -78.5t-77 -31.5q-47 0 -79 31.5t-32 78.5q0 84 34 159t91.5 130t133 88t159.5 33q86 0 163 -33t133.5 -90t89 -133 t32.5 -162q0 -76 -24.5 -143.5t-69.5 -120.5l-387 -496h391q45 0 78 -31.5t33 -76.5q0 -47 -33 -79t-78 -32h-635q-47 0 -79 32t-32 79z" />
<glyph unicode="&#xb3;" horiz-adv-x="942" d="M49 373q0 47 32 78.5t79 31.5q45 0 77.5 -31.5t32.5 -78.5q0 -82 57.5 -138.5t139.5 -56.5q84 0 141.5 56.5t57.5 140.5q0 39 -15.5 79t-43 73.5t-63.5 55t-77 23.5q-45 0 -77 36t-32 81t28 83t81 38h6q43 2 70.5 19.5t43 45t20.5 59t5 60.5q0 59 -43 102.5t-102 43.5 q-61 0 -103 -42t-42 -102q0 -47 -33 -78.5t-78 -31.5q-47 0 -79 31.5t-32 78.5v4q0 74 29 140.5t79 115.5t116.5 78t142.5 29t142.5 -29t116.5 -78t79 -115.5t29 -142.5q0 -35 -4.5 -74.5t-14.5 -78.5t-28.5 -74t-49.5 -60q33 -29 60.5 -72.5t47 -95t30 -104.5t10.5 -100 q0 -86 -33 -161t-89 -132t-133 -90t-163 -33t-162 33t-132 90t-90 132t-34 161z" />
<glyph unicode="&#xb4;" horiz-adv-x="385" d="M45 1090q0 29 16 57l78 135q33 53 94 53q47 0 78 -32.5t31 -75.5q0 -14 -2 -29.5t-12 -30.5v2q-18 -33 -39 -66.5t-39 -68.5q-33 -53 -92 -53q-47 0 -80 32t-33 77z" />
<glyph unicode="&#xb5;" horiz-adv-x="882" d="M82 -164v1077q0 47 31.5 79t79.5 32q43 0 75.5 -31.5t32.5 -79.5v-542q0 -66 46 -112t116 -46q66 0 114 46t48 112v542q0 47 31.5 79t76.5 32t78 -31.5t33 -79.5v-542q0 -78 -30 -146.5t-82 -121t-121.5 -82t-147.5 -29.5q-88 0 -162 35v-191q0 -45 -32.5 -76.5 t-75.5 -31.5q-47 0 -79 31.5t-32 76.5z" />
<glyph unicode="&#xb7;" horiz-adv-x="335" d="M57 547q0 45 32 76.5t79 31.5q43 0 75.5 -31.5t32.5 -76.5q0 -47 -31.5 -79t-76.5 -32t-78 32t-33 79z" />
<glyph unicode="&#xb8;" horiz-adv-x="479" d="M49 -190q0 31 11.5 50t28.5 30.5t37.5 16.5t41.5 9q2 2 10 2q-2 2 -2 4q-10 16 -17 37t-7 47v33q0 16 10 26.5t26 10.5h146q16 0 26.5 -10.5t10.5 -26.5v-33q0 -10 4 -20.5t10 -24.5q12 -29 23.5 -57.5t11.5 -59.5q0 -29 -11.5 -55.5t-41 -45.5t-80.5 -30.5t-129 -11.5 q-45 0 -77 32t-32 77z" />
<glyph unicode="&#xb9;" horiz-adv-x="505" d="M37 1137q0 27 13 54.5t42 43.5l-2 -2l186 108h-2q14 8 31 13.5t33 5.5q45 0 76.5 -32t31.5 -79v-1147q0 -47 -31.5 -78.5t-76.5 -31.5t-78 31.5t-33 78.5v955q-12 -6 -24 -15q-29 -16 -58 -16q-39 0 -73.5 30t-34.5 81z" />
<glyph unicode="&#xba;" horiz-adv-x="858" d="M173.985 915.229v187.021q0 53.2393 20.4697 99.9941t55.9492 82.5889q35.4805 35.835 82.5605 55.9697q47.0791 20.1357 100.981 20.1357q53.2207 0 100.982 -20.1357q47.7617 -20.1348 83.2422 -55.9697q35.4805 -35.834 55.6084 -82.5889t20.1279 -99.9941v-187.021 q0 -53.2393 -20.1279 -99.9951q-20.1279 -46.7549 -55.6084 -82.5889t-82.5596 -55.9697q-47.0801 -20.1357 -101.665 -20.1357q-53.2197 0 -100.641 20.1357t-82.9014 55.9697q-35.4795 35.834 -55.9492 82.5889q-20.4697 46.7559 -20.4697 99.9951zM325.459 915.229 q0 -45.0488 32.0684 -76.4463q32.0693 -31.3975 76.4189 -31.3975q47.7617 0 79.1484 31.3975t31.3867 76.4463v187.021q0 22.5244 -8.87012 41.9766q-8.87012 19.4531 -23.54 34.1279t-35.1387 23.207q-20.4697 8.53223 -42.9863 8.53223q-46.3975 0 -77.4424 -31.3975 t-31.0449 -76.4463v-187.021z" />
<glyph unicode="&#xbb;" horiz-adv-x="950" d="M78 154q0 39 24 69q53 72 106.5 138.5t108.5 138.5l-215 278q-25 33 -24 70q0 43 31.5 75.5t83.5 32.5q23 0 44 -8t37 -30l267 -347q25 -35 24 -73q0 -31 -22 -64l-269 -348q-16 -20 -37.5 -31.5t-43.5 -11.5q-51 0 -83 35t-32 76zM424 154q0 41 25 69q53 72 105 138.5 t108 138.5l-213 278q-25 33 -25 70q0 43 31.5 75.5t81.5 32.5q23 0 45 -8t39 -30l266 -347q25 -35 24 -73q0 -31 -22 -64l-268 -348q-33 -43 -84 -43q-49 0 -81 35t-32 76z" />
<glyph unicode="&#xbc;" horiz-adv-x="2277" d="M1405 330q0 31 16 59l522 920q14 27 41 39t54 12q47 0 79.5 -34t32.5 -75v-813q39 -8 64.5 -37.5t25.5 -70.5t-25.5 -71t-64.5 -38v-119q0 -47 -32.5 -78.5t-77.5 -31.5q-47 0 -79 31.5t-32 78.5v119h-416q-43 0 -75.5 34t-32.5 75zM1702 440h227v391 q-57 -98 -110.5 -189t-116.5 -202zM508 84q-4 39 16 72l644 1118q12 23 33.5 35t43.5 16q49 6 84 -22.5t41 -71.5q2 -16 -1 -35.5t-13 -36.5q-86 -150 -165 -288t-156.5 -273t-156.5 -272.5t-165 -286.5q-12 -23 -32.5 -35t-43.5 -16q-51 -6 -87 24.5t-42 71.5zM37 1137 q0 27 13 54.5t42 43.5l-2 -2l186 108h-2q14 8 31 13.5t33 5.5q45 0 76.5 -32t31.5 -79v-1147q0 -47 -31.5 -78.5t-76.5 -31.5t-78 31.5t-33 78.5v955q-12 -6 -24 -15q-29 -16 -58 -16q-39 0 -73.5 30t-34.5 81z" />
<glyph unicode="&#xbd;" horiz-adv-x="2353" d="M1437 111q0 41 27 71l547 676q18 18 30.5 54t12.5 67v2q0 82 -57.5 138.5t-141.5 56.5q-39 0 -74.5 -14.5t-63.5 -40t-44 -60.5t-16 -74q0 -47 -32 -78.5t-77 -31.5q-47 0 -79 31.5t-32 78.5q0 84 34 159t91.5 130t133 88t159.5 33q86 0 163 -33t133.5 -90t89 -133 t32.5 -162q0 -76 -24.5 -143.5t-69.5 -120.5l-387 -496h391q45 0 78 -31.5t33 -76.5q0 -47 -33 -79t-78 -32h-635q-47 0 -79 32t-32 79zM508 84q-4 39 16 72l644 1118q12 23 33.5 35t43.5 16q49 6 84 -22.5t41 -71.5q2 -16 -1 -35.5t-13 -36.5q-86 -150 -165 -288 t-156.5 -273t-156.5 -272.5t-165 -286.5q-12 -23 -32.5 -35t-43.5 -16q-51 -6 -87 24.5t-42 71.5zM37 1137q0 27 13 54.5t42 43.5l-2 -2l186 108h-2q14 8 31 13.5t33 5.5q45 0 76.5 -32t31.5 -79v-1147q0 -47 -31.5 -78.5t-76.5 -31.5t-78 31.5t-33 78.5v955q-12 -6 -24 -15 q-29 -16 -58 -16q-39 0 -73.5 30t-34.5 81z" />
<glyph unicode="&#xbe;" horiz-adv-x="2713" d="M1841 330q0 31 16 59l522 920q14 27 41 39t54 12q47 0 79.5 -34t32.5 -75v-813q39 -8 64.5 -37.5t25.5 -70.5t-25.5 -71t-64.5 -38v-119q0 -47 -32.5 -78.5t-77.5 -31.5q-47 0 -79 31.5t-32 78.5v119h-416q-43 0 -75.5 34t-32.5 75zM2138 440h227v391 q-57 -98 -110.5 -189t-116.5 -202zM944 84q-4 39 16 72l644 1118q12 23 33.5 35t43.5 16q49 6 84 -22.5t41 -71.5q2 -16 -1 -35.5t-13 -36.5q-86 -150 -165 -288t-156.5 -273t-156.5 -272.5t-165 -286.5q-12 -23 -32.5 -35t-43.5 -16q-51 -6 -87 24.5t-42 71.5zM49 373 q0 47 32 78.5t79 31.5q45 0 77.5 -31.5t32.5 -78.5q0 -82 57.5 -138.5t139.5 -56.5q84 0 141.5 56.5t57.5 140.5q0 39 -15.5 79t-43 73.5t-63.5 55t-77 23.5q-45 0 -77 36t-32 81t28 83t81 38h6q43 2 70.5 19.5t43 45t20.5 59t5 60.5q0 59 -43 102.5t-102 43.5 q-61 0 -103 -42t-42 -102q0 -47 -33 -78.5t-78 -31.5q-47 0 -79 31.5t-32 78.5v4q0 74 29 140.5t79 115.5t116.5 78t142.5 29t142.5 -29t116.5 -78t79 -115.5t29 -142.5q0 -35 -4.5 -74.5t-14.5 -78.5t-28.5 -74t-49.5 -60q33 -29 60.5 -72.5t47 -95t30 -104.5t10.5 -100 q0 -86 -33 -161t-89 -132t-133 -90t-163 -33t-162 33t-132 90t-90 132t-34 161z" />
<glyph unicode="&#xbf;" horiz-adv-x="1007" d="M977.002 342.062q0 -26.998 -6 -44.9971q-26.998 -67.9961 -72.9951 -122.992q-45.9971 -54.9971 -104.994 -95.9941q-58.9961 -40.998 -129.991 -63.4961q-70.9961 -22.499 -146.991 -22.499q-99.9941 0 -189.988 38.998q-89.9951 38.9971 -155.491 104.493 t-104.493 155.49q-38.998 89.9951 -38.998 190.988q0 83.9951 30.498 166.49q30.499 82.4951 87.9951 150.491q57.4961 67.9951 138.491 111.993q80.9951 43.9971 178.989 49.9961q11.999 32.998 39.998 53.4971q27.998 20.499 62.9961 20.499q44.9971 0 76.4951 -32.998 t31.498 -77.9951v-65.9961q0 -44.9971 -32.498 -76.4951t-75.4951 -31.498h-24.999q-62.9961 0 -117.492 -23.499q-54.4971 -23.498 -94.4951 -61.4961q-39.9971 -37.998 -61.4961 -85.9951q-21.498 -47.9971 -21.498 -98.9941q0 -54.9961 20.498 -103.493 q20.499 -48.4971 57.4971 -84.4951q36.9971 -35.998 85.9941 -57.4961q48.9971 -21.499 105.994 -21.499q87.9941 0 154.99 49.4971t98.9941 124.492q13.999 30.998 42.9971 47.4971t57.9971 16.499q48.9971 0 77.4951 -33.998q28.498 -33.9971 28.498 -74.9951z M674.021 1250.01v-55.9961q0 -44.9971 -32.498 -76.4951t-75.4951 -31.498q-46.9971 0 -78.9951 31.498t-31.998 76.4951v55.9961q0 46.9971 32.9971 78.4951q32.998 31.499 77.9961 31.499q44.9971 0 76.4951 -31.499q31.498 -31.498 31.498 -78.4951z" />
<glyph unicode="&#xc0;" horiz-adv-x="1265" d="M37 102q0 10 2 22.5t6 20.5l487 1147q33 68 103 68q35 0 62.5 -20.5t39.5 -47.5l488 -1147q10 -25 10 -43q0 -39 -29.5 -74.5t-81.5 -35.5q-76 0 -102 67l-127 303h-518q-33 -76 -64.5 -151.5t-62.5 -151.5q-16 -35 -43 -51t-60 -16q-51 0 -80.5 35.5t-29.5 74.5z M469 588h330l-164 379q-23 -49 -42.5 -95.5t-40 -91.5t-40.5 -92t-43 -100zM426 1688q0 43 33 75.5t80 32.5q59 0 92 -53l78 -135q10 -16 12 -30.5t2 -26.5q0 -45 -30.5 -77t-78.5 -32q-59 0 -94 53l-78 135v-2q-16 27 -16 60z" />
<glyph unicode="&#xc1;" horiz-adv-x="1265" d="M37 102q0 10 2 22.5t6 20.5l487 1147q33 68 103 68q35 0 62.5 -20.5t39.5 -47.5l488 -1147q10 -25 10 -43q0 -39 -29.5 -74.5t-81.5 -35.5q-76 0 -102 67l-127 303h-518q-33 -76 -64.5 -151.5t-62.5 -151.5q-16 -35 -43 -51t-60 -16q-51 0 -80.5 35.5t-29.5 74.5z M469 588h330l-164 379q-23 -49 -42.5 -95.5t-40 -91.5t-40.5 -92t-43 -100zM549 1551q0 29 16 57l78 135q33 53 94 53q47 0 78 -32.5t31 -75.5q0 -14 -2 -29.5t-12 -30.5v2q-18 -33 -39 -66.5t-39 -68.5q-33 -53 -92 -53q-47 0 -80 32t-33 77z" />
<glyph unicode="&#xc2;" horiz-adv-x="1265" d="M37 102q0 10 2 22.5t6 20.5l487 1147q33 68 103 68q35 0 62.5 -20.5t39.5 -47.5l488 -1147q10 -25 10 -43q0 -39 -29.5 -74.5t-81.5 -35.5q-76 0 -102 67l-127 303h-518q-33 -76 -64.5 -151.5t-62.5 -151.5q-16 -35 -43 -51t-60 -16q-51 0 -80.5 35.5t-29.5 74.5z M469 588h330l-164 379q-23 -49 -42.5 -95.5t-40 -91.5t-40.5 -92t-43 -100zM403 1551q0 23 12.5 47t34.5 41l131 94q27 18 56 18q37 0 65 -22l125 -90q23 -16 35 -41t12 -47q0 -47 -35.5 -79t-78.5 -32q-16 0 -32 4t-30 16q-20 14 -31.5 20.5t-31.5 20.5q-16 -10 -27.5 -20 t-28.5 -21q-33 -20 -63 -20q-47 0 -80 32t-33 79z" />
<glyph unicode="&#xc3;" horiz-adv-x="1265" d="M37 102q0 10 2 22.5t6 20.5l487 1147q33 68 103 68q35 0 62.5 -20.5t39.5 -47.5l488 -1147q10 -25 10 -43q0 -39 -29.5 -74.5t-81.5 -35.5q-76 0 -102 67l-127 303h-518q-33 -76 -64.5 -151.5t-62.5 -151.5q-16 -35 -43 -51t-60 -16q-51 0 -80.5 35.5t-29.5 74.5z M469 588h330l-164 379q-23 -49 -42.5 -95.5t-40 -91.5t-40.5 -92t-43 -100zM355 1640q0 39 22.5 65.5t53 42t64.5 21.5t56 6q14 0 40 -6t42 -12q37 -14 63.5 -13.5t48 8t39 15.5t35.5 8q45 0 78 -31.5t33 -78.5q0 -39 -24.5 -65t-58.5 -41t-70.5 -21.5t-61.5 -6.5 q-39 0 -74 10.5t-61 10.5q-35 0 -60.5 -10.5t-52.5 -10.5q-43 0 -77.5 32t-34.5 77z" />
<glyph unicode="&#xc4;" horiz-adv-x="1265" d="M37 102q0 10 2 22.5t6 20.5l487 1147q33 68 103 68q35 0 62.5 -20.5t39.5 -47.5l488 -1147q10 -25 10 -43q0 -39 -29.5 -74.5t-81.5 -35.5q-76 0 -102 67l-127 303h-518q-33 -76 -64.5 -151.5t-62.5 -151.5q-16 -35 -43 -51t-60 -16q-51 0 -80.5 35.5t-29.5 74.5z M469 588h330l-164 379q-23 -49 -42.5 -95.5t-40 -91.5t-40.5 -92t-43 -100zM404 1606v55q0 47 31.5 79t76.5 32t78 -32t33 -79v-55q0 -45 -32 -77t-79 -32q-43 0 -75.5 32t-32.5 77zM653 1606v55q0 47 32 79t77 32t78 -32t33 -79v-55q0 -45 -32 -77t-79 -32q-43 0 -76 32 t-33 77z" />
<glyph unicode="&#xc5;" horiz-adv-x="1265" d="M37 102q0 10 2 22.5t6 20.5l487 1147q33 68 103 68q35 0 62.5 -20.5t39.5 -47.5l488 -1147q10 -25 10 -43q0 -39 -29.5 -74.5t-81.5 -35.5q-76 0 -102 67l-127 303h-518q-33 -76 -64.5 -151.5t-62.5 -151.5q-16 -35 -43 -51t-60 -16q-51 0 -80.5 35.5t-29.5 74.5z M469 588h330l-164 379q-23 -49 -42.5 -95.5t-40 -91.5t-40.5 -92t-43 -100zM428 1640q0 43 16.5 81t44 65.5t64.5 44t80 16.5t80 -16.5t65.5 -44t45 -65.5t16.5 -81q0 -41 -16.5 -77.5t-45 -64.5t-65.5 -44t-80 -16t-80 16t-64.5 44t-44 64.5t-16.5 77.5zM604 1640 q0 -27 29 -26q10 0 19.5 8t9.5 18q0 12 -9.5 20.5t-19.5 8.5q-29 0 -29 -29z" />
<glyph unicode="&#xc6;" horiz-adv-x="1421" d="M39 109q0 10 2 22t6 21l488 1132q31 68 102 68h596q47 0 80 -33t33 -80q0 -45 -33 -78t-80 -33h-410v-360h189q47 0 79.5 -31.5t32.5 -79.5q0 -47 -32.5 -79.5t-79.5 -32.5h-189v-322h410q47 0 80 -31.5t33 -78.5t-33 -80t-80 -33h-522q-45 0 -79 33t-34 80v249h-219 q-33 -76 -64.5 -148.5t-64.5 -147.5q-14 -35 -41 -51.5t-59 -16.5q-51 0 -81 36t-30 75zM471 588h127v291q-33 -72 -62.5 -140.5t-64.5 -150.5z" />
<glyph unicode="&#xc7;" horiz-adv-x="1056" d="M59 455v444q0 102 39 193.5t106.5 159t159 106.5t195.5 39q76 0 145.5 -21.5t129 -61.5t105.5 -94.5t75 -119.5q8 -14 11 -30.5t3 -29.5q0 -41 -28.5 -75.5t-81.5 -34.5q-70 0 -103 67q-31 76 -99.5 125t-156.5 49q-57 0 -107 -21.5t-88 -58t-59.5 -87t-21.5 -105.5v-444 q0 -55 22.5 -105.5t60.5 -87.5t88 -58.5t105 -21.5q88 0 156.5 50.5t101.5 125.5q14 29 44 47.5t57 18.5q51 0 80.5 -35t29.5 -76q0 -25 -8 -43q-27 -70 -73 -127t-105.5 -99t-131 -64.5t-151.5 -22.5q-102 0 -193 40t-159 107.5t-108 158t-40 192.5zM303 -172q0 31 11.5 50 t28.5 30.5t37.5 16.5t41.5 9q2 2 10 2q-2 2 -2 4q-10 16 -17 37t-7 47v33q0 16 10 26.5t26 10.5h146q16 0 26.5 -10.5t10.5 -26.5v-33q0 -10 4 -20.5t10 -24.5q12 -29 23.5 -57.5t11.5 -59.5q0 -29 -11.5 -55.5t-41 -45.5t-80.5 -30.5t-129 -11.5q-45 0 -77 32t-32 77z" />
<glyph unicode="&#xc8;" horiz-adv-x="1081" d="M55 113v1126q0 47 32.5 80t80.5 33h774q47 0 78.5 -33t31.5 -80q0 -45 -31.5 -78t-78.5 -33h-664v-360h191q47 0 78.5 -31.5t31.5 -79.5q0 -47 -31.5 -79.5t-78.5 -32.5h-191v-322h664q47 0 78.5 -31.5t31.5 -78.5t-31.5 -80t-78.5 -33h-774q-47 0 -80 33t-33 80z M356 1688q0 43 33 75.5t80 32.5q59 0 92 -53l78 -135q10 -16 12 -30.5t2 -26.5q0 -45 -30.5 -77t-78.5 -32q-59 0 -94 53l-78 135v-2q-16 27 -16 60z" />
<glyph unicode="&#xc9;" horiz-adv-x="1081" d="M55 113v1126q0 47 32.5 80t80.5 33h774q47 0 78.5 -33t31.5 -80q0 -45 -31.5 -78t-78.5 -33h-664v-360h191q47 0 78.5 -31.5t31.5 -79.5q0 -47 -31.5 -79.5t-78.5 -32.5h-191v-322h664q47 0 78.5 -31.5t31.5 -78.5t-31.5 -80t-78.5 -33h-774q-47 0 -80 33t-33 80z M418 1551q0 29 16 57l78 135q33 53 94 53q47 0 78 -32.5t31 -75.5q0 -14 -2 -29.5t-12 -30.5v2q-18 -33 -39 -66.5t-39 -68.5q-33 -53 -92 -53q-47 0 -80 32t-33 77z" />
<glyph unicode="&#xca;" horiz-adv-x="1081" d="M55 113v1126q0 47 32.5 80t80.5 33h774q47 0 78.5 -33t31.5 -80q0 -45 -31.5 -78t-78.5 -33h-664v-360h191q47 0 78.5 -31.5t31.5 -79.5q0 -47 -31.5 -79.5t-78.5 -32.5h-191v-322h664q47 0 78.5 -31.5t31.5 -78.5t-31.5 -80t-78.5 -33h-774q-47 0 -80 33t-33 80z M299 1551q0 23 12.5 47t34.5 41l131 94q27 18 56 18q37 0 65 -22l125 -90q23 -16 35 -41t12 -47q0 -47 -35.5 -79t-78.5 -32q-16 0 -32 4t-30 16q-20 14 -31.5 20.5t-31.5 20.5q-16 -10 -27.5 -20t-28.5 -21q-33 -20 -63 -20q-47 0 -80 32t-33 79z" />
<glyph unicode="&#xcb;" horiz-adv-x="1081" d="M55 113v1126q0 47 32.5 80t80.5 33h774q47 0 78.5 -33t31.5 -80q0 -45 -31.5 -78t-78.5 -33h-664v-360h191q47 0 78.5 -31.5t31.5 -79.5q0 -47 -31.5 -79.5t-78.5 -32.5h-191v-322h664q47 0 78.5 -31.5t31.5 -78.5t-31.5 -80t-78.5 -33h-774q-47 0 -80 33t-33 80z M303 1606v55q0 47 31.5 79t76.5 32t78 -32t33 -79v-55q0 -45 -32 -77t-79 -32q-43 0 -75.5 32t-32.5 77zM552 1606v55q0 47 32 79t77 32t78 -32t33 -79v-55q0 -45 -32 -77t-79 -32q-43 0 -76 32t-33 77z" />
<glyph unicode="&#xcc;" horiz-adv-x="325" d="M57 104v1135q0 47 32.5 80t80.5 33q45 0 78.5 -33t33.5 -80v-1135q0 -47 -32.5 -79.5t-79.5 -32.5q-45 0 -79 32.5t-34 79.5zM-45 1688q0 43 33 75.5t80 32.5q59 0 92 -53l78 -135q10 -16 12 -30.5t2 -26.5q0 -45 -30.5 -77t-78.5 -32q-59 0 -94 53l-78 135v-2 q-16 27 -16 60z" />
<glyph unicode="&#xcd;" horiz-adv-x="350" d="M62 104v1135q0 47 32.5 80t80.5 33q45 0 78.5 -33t33.5 -80v-1135q0 -47 -32.5 -79.5t-79.5 -32.5q-45 0 -79 32.5t-34 79.5zM76 1549q0 29 16 57l78 135q33 53 94 53q47 0 78 -32.5t31 -75.5q0 -14 -2 -29.5t-12 -30.5v2q-18 -33 -39 -66.5t-39 -68.5q-33 -53 -92 -53 q-47 0 -80 32t-33 77z" />
<glyph unicode="&#xce;" horiz-adv-x="337" d="M64 104v1135q0 47 32.5 80t80.5 33q45 0 78.5 -33t33.5 -80v-1135q0 -47 -32.5 -79.5t-79.5 -32.5q-45 0 -79 32.5t-34 79.5zM-70 1551q0 23 12.5 47t34.5 41l131 94q27 18 56 18q37 0 65 -22l125 -90q23 -16 35 -41t12 -47q0 -47 -35.5 -79t-78.5 -32q-16 0 -32 4 t-30 16q-20 14 -31.5 20.5t-31.5 20.5q-16 -10 -27.5 -20t-28.5 -21q-33 -20 -63 -20q-47 0 -80 32t-33 79z" />
<glyph unicode="&#xcf;" horiz-adv-x="335" d="M51 104v1135q0 47 32.5 80t80.5 33q45 0 78.5 -33t33.5 -80v-1135q0 -47 -32.5 -79.5t-79.5 -32.5q-45 0 -79 32.5t-34 79.5zM-69 1606v55q0 47 31.5 79t76.5 32t78 -32t33 -79v-55q0 -45 -32 -77t-79 -32q-43 0 -75.5 32t-32.5 77zM180 1606v55q0 47 32 79t77 32t78 -32 t33 -79v-55q0 -45 -32 -77t-79 -32q-43 0 -76 32t-33 77z" />
<glyph unicode="&#xd0;" horiz-adv-x="1236" d="M57 659q0 45 33 78t80 33h4v469q0 47 32 80t79 33h387q104 0 195 -39t159 -105.5t106.5 -155.5t38.5 -192v-368q0 -102 -38.5 -191.5t-106.5 -156t-159 -105.5t-193 -39h-389q-45 0 -78 33t-33 80v434h-4q-47 0 -80 32.5t-33 79.5zM397 223h277q57 0 107 21.5t87 57.5 t58.5 85t21.5 105v368q0 55 -21.5 104.5t-59.5 85t-88 57t-107 21.5h-275v-358h189q47 0 78.5 -31.5t31.5 -79.5q0 -47 -31.5 -79.5t-78.5 -32.5h-189v-324z" />
<glyph unicode="&#xd1;" d="M68 104v758q0 102 39 192.5t106.5 158t158.5 107.5t193 40t193.5 -40t159 -107.5t107.5 -157.5t40 -193v-758q0 -47 -31.5 -79.5t-78.5 -32.5q-45 0 -79 32.5t-34 79.5v758q0 55 -21.5 105.5t-59.5 87.5t-88 58.5t-108 21.5q-57 0 -107 -21.5t-87 -58.5t-58.5 -87 t-21.5 -106v-758q0 -47 -32 -79.5t-79 -32.5t-79.5 32.5t-32.5 79.5zM269 1640q0 39 22.5 65.5t53 42t64.5 21.5t56 6q14 0 40 -6t42 -12q37 -14 63.5 -13.5t48 8t39 15.5t35.5 8q45 0 78 -31.5t33 -78.5q0 -39 -24.5 -65t-58.5 -41t-70.5 -21.5t-61.5 -6.5q-39 0 -74 10.5 t-61 10.5q-35 0 -60.5 -10.5t-52.5 -10.5q-43 0 -77.5 32t-34.5 77z" />
<glyph unicode="&#xd2;" horiz-adv-x="1091" d="M56 455v442q0 102 39.5 193.5t107.5 159t159 106.5t193 39t193.5 -39t159 -106.5t107.5 -159t40 -193.5v-442q0 -102 -40 -192.5t-107.5 -158t-158.5 -107.5t-194 -40q-102 0 -193 40t-159 107.5t-107.5 158t-39.5 192.5zM281 455q0 -55 21.5 -105.5t59.5 -87.5t88 -58.5 t105 -21.5q57 0 107.5 21.5t87.5 58.5t58.5 87t21.5 106v442q0 55 -21.5 105.5t-59.5 87t-88 58t-106 21.5q-57 0 -107 -21.5t-87 -58t-58.5 -87t-21.5 -105.5v-442zM338 1686q0 43 33 75.5t80 32.5q59 0 92 -53l78 -135q10 -16 12 -30.5t2 -26.5q0 -45 -30.5 -77t-78.5 -32 q-59 0 -94 53l-78 135v-2q-16 27 -16 60z" />
<glyph unicode="&#xd3;" horiz-adv-x="1091" d="M56 455v442q0 102 39.5 193.5t107.5 159t159 106.5t193 39t193.5 -39t159 -106.5t107.5 -159t40 -193.5v-442q0 -102 -40 -192.5t-107.5 -158t-158.5 -107.5t-194 -40q-102 0 -193 40t-159 107.5t-107.5 158t-39.5 192.5zM281 455q0 -55 21.5 -105.5t59.5 -87.5t88 -58.5 t105 -21.5q57 0 107.5 21.5t87.5 58.5t58.5 87t21.5 106v442q0 55 -21.5 105.5t-59.5 87t-88 58t-106 21.5q-57 0 -107 -21.5t-87 -58t-58.5 -87t-21.5 -105.5v-442zM420 1551q0 29 16 57l78 135q33 53 94 53q47 0 78 -32.5t31 -75.5q0 -14 -2 -29.5t-12 -30.5v2 q-18 -33 -39 -66.5t-39 -68.5q-33 -53 -92 -53q-47 0 -80 32t-33 77z" />
<glyph unicode="&#xd4;" horiz-adv-x="1091" d="M56 455v442q0 102 39.5 193.5t107.5 159t159 106.5t193 39t193.5 -39t159 -106.5t107.5 -159t40 -193.5v-442q0 -102 -40 -192.5t-107.5 -158t-158.5 -107.5t-194 -40q-102 0 -193 40t-159 107.5t-107.5 158t-39.5 192.5zM281 455q0 -55 21.5 -105.5t59.5 -87.5t88 -58.5 t105 -21.5q57 0 107.5 21.5t87.5 58.5t58.5 87t21.5 106v442q0 55 -21.5 105.5t-59.5 87t-88 58t-106 21.5q-57 0 -107 -21.5t-87 -58t-58.5 -87t-21.5 -105.5v-442zM309 1551q0 23 12.5 47t34.5 41l131 94q27 18 56 18q37 0 65 -22l125 -90q23 -16 35 -41t12 -47 q0 -47 -35.5 -79t-78.5 -32q-16 0 -32 4t-30 16q-20 14 -31.5 20.5t-31.5 20.5q-16 -10 -27.5 -20t-28.5 -21q-33 -20 -63 -20q-47 0 -80 32t-33 79z" />
<glyph unicode="&#xd5;" horiz-adv-x="1091" d="M56 455v442q0 102 39.5 193.5t107.5 159t159 106.5t193 39t193.5 -39t159 -106.5t107.5 -159t40 -193.5v-442q0 -102 -40 -192.5t-107.5 -158t-158.5 -107.5t-194 -40q-102 0 -193 40t-159 107.5t-107.5 158t-39.5 192.5zM281 455q0 -55 21.5 -105.5t59.5 -87.5t88 -58.5 t105 -21.5q57 0 107.5 21.5t87.5 58.5t58.5 87t21.5 106v442q0 55 -21.5 105.5t-59.5 87t-88 58t-106 21.5q-57 0 -107 -21.5t-87 -58t-58.5 -87t-21.5 -105.5v-442zM256 1640q0 39 22.5 65.5t53 42t64.5 21.5t56 6q14 0 40 -6t42 -12q37 -14 63.5 -13.5t48 8t39 15.5 t35.5 8q45 0 78 -31.5t33 -78.5q0 -39 -24.5 -65t-58.5 -41t-70.5 -21.5t-61.5 -6.5q-39 0 -74 10.5t-61 10.5q-35 0 -60.5 -10.5t-52.5 -10.5q-43 0 -77.5 32t-34.5 77z" />
<glyph unicode="&#xd6;" horiz-adv-x="1091" d="M56 455v442q0 102 39.5 193.5t107.5 159t159 106.5t193 39t193.5 -39t159 -106.5t107.5 -159t40 -193.5v-442q0 -102 -40 -192.5t-107.5 -158t-158.5 -107.5t-194 -40q-102 0 -193 40t-159 107.5t-107.5 158t-39.5 192.5zM281 455q0 -55 21.5 -105.5t59.5 -87.5t88 -58.5 t105 -21.5q57 0 107.5 21.5t87.5 58.5t58.5 87t21.5 106v442q0 55 -21.5 105.5t-59.5 87t-88 58t-106 21.5q-57 0 -107 -21.5t-87 -58t-58.5 -87t-21.5 -105.5v-442zM306 1606v55q0 47 31.5 79t76.5 32t78 -32t33 -79v-55q0 -45 -32 -77t-79 -32q-43 0 -75.5 32t-32.5 77z M555 1606v55q0 47 32 79t77 32t78 -32t33 -79v-55q0 -45 -32 -77t-79 -32q-43 0 -76 32t-33 77z" />
<glyph unicode="&#xd7;" horiz-adv-x="737" d="M74 387q0 45 32 78l109 108l-104 103q-35 33 -35 80q0 45 31.5 76.5t76.5 31.5q41 0 78 -33l109 -106l104 106q37 33 78 33q45 0 77 -31.5t32 -76.5t-33 -78l-105 -105q27 -29 53.5 -56.5t53.5 -53.5q33 -33 33 -76q0 -45 -31 -78t-80 -33q-41 0 -78 33l-104 109 l-109 -109q-33 -33 -78 -33t-77.5 31t-32.5 80z" />
<glyph unicode="&#xd8;" horiz-adv-x="1163" d="M74 455v442q0 102 39.5 193.5t107.5 159t159 106.5t193 39t193.5 -39t159 -106.5t107.5 -159t40 -193.5v-442q0 -102 -40 -192.5t-107.5 -158t-158.5 -107.5t-194 -40q-102 0 -193 40t-159 107.5t-107.5 158t-39.5 192.5zM299 455q0 -55 21.5 -105.5t59.5 -87.5t88 -58.5 t105 -21.5q57 0 107.5 21.5t87.5 58.5t58.5 87t21.5 106v442q0 55 -21.5 105.5t-59.5 87t-88 58t-106 21.5q-57 0 -107 -21.5t-87 -58t-58.5 -87t-21.5 -105.5v-442zM156 115q-4 39 16 72l644 1118q12 23 33.5 35t43.5 16q49 6 84 -22.5t41 -71.5q2 -16 -1 -35.5t-13 -36.5 q-86 -150 -165 -288t-156.5 -273t-156.5 -272.5t-165 -286.5q-12 -23 -32.5 -35t-43.5 -16q-51 -6 -87 24.5t-42 71.5z" />
<glyph unicode="&#xd9;" d="M66 457v790q0 47 32.5 80t79.5 33q45 0 78 -33t33 -80v-790q0 -55 22.5 -105.5t60.5 -87.5t88 -58.5t105 -21.5q57 0 107.5 21.5t87.5 58.5t58.5 87t21.5 106v790q0 47 32.5 80t79.5 33q45 0 78 -33t33 -80v-790q0 -102 -39 -192.5t-106.5 -158t-158.5 -107.5t-194 -40 q-102 0 -193 40t-158.5 107.5t-107.5 158t-40 192.5zM379 1684q0 43 33 75.5t80 32.5q59 0 92 -53l78 -135q10 -16 12 -30.5t2 -26.5q0 -45 -30.5 -77t-78.5 -32q-59 0 -94 53l-78 135v-2q-16 27 -16 60z" />
<glyph unicode="&#xda;" d="M66 457v790q0 47 32.5 80t79.5 33q45 0 78 -33t33 -80v-790q0 -55 22.5 -105.5t60.5 -87.5t88 -58.5t105 -21.5q57 0 107.5 21.5t87.5 58.5t58.5 87t21.5 106v790q0 47 32.5 80t79.5 33q45 0 78 -33t33 -80v-790q0 -102 -39 -192.5t-106.5 -158t-158.5 -107.5t-194 -40 q-102 0 -193 40t-158.5 107.5t-107.5 158t-40 192.5zM453 1545q0 29 16 57l78 135q33 53 94 53q47 0 78 -32.5t31 -75.5q0 -14 -2 -29.5t-12 -30.5v2q-18 -33 -39 -66.5t-39 -68.5q-33 -53 -92 -53q-47 0 -80 32t-33 77z" />
<glyph unicode="&#xdb;" d="M66 457v790q0 47 32.5 80t79.5 33q45 0 78 -33t33 -80v-790q0 -55 22.5 -105.5t60.5 -87.5t88 -58.5t105 -21.5q57 0 107.5 21.5t87.5 58.5t58.5 87t21.5 106v790q0 47 32.5 80t79.5 33q45 0 78 -33t33 -80v-790q0 -102 -39 -192.5t-106.5 -158t-158.5 -107.5t-194 -40 q-102 0 -193 40t-158.5 107.5t-107.5 158t-40 192.5zM350 1551q0 23 12.5 47t34.5 41l131 94q27 18 56 18q37 0 65 -22l125 -90q23 -16 35 -41t12 -47q0 -47 -35.5 -79t-78.5 -32q-16 0 -32 4t-30 16q-20 14 -31.5 20.5t-31.5 20.5q-16 -10 -27.5 -20t-28.5 -21 q-33 -20 -63 -20q-47 0 -80 32t-33 79z" />
<glyph unicode="&#xdc;" d="M66 457v790q0 47 32.5 80t79.5 33q45 0 78 -33t33 -80v-790q0 -55 22.5 -105.5t60.5 -87.5t88 -58.5t105 -21.5q57 0 107.5 21.5t87.5 58.5t58.5 87t21.5 106v790q0 47 32.5 80t79.5 33q45 0 78 -33t33 -80v-790q0 -102 -39 -192.5t-106.5 -158t-158.5 -107.5t-194 -40 q-102 0 -193 40t-158.5 107.5t-107.5 158t-40 192.5zM338 1548v55q0 47 31.5 79t76.5 32t78 -32t33 -79v-55q0 -45 -32 -77t-79 -32q-43 0 -75.5 32t-32.5 77zM587 1548v55q0 47 32 79t77 32t78 -32t33 -79v-55q0 -45 -32 -77t-79 -32q-43 0 -76 32t-33 77z" />
<glyph unicode="&#xdd;" horiz-adv-x="1058" d="M37 862v385q0 47 33 80t80 33q45 0 78.5 -33t33.5 -80v-385q0 -55 21.5 -104t59.5 -86t88.5 -58.5t107.5 -21.5t106.5 21.5t86 58.5t58 86t21.5 104v385q0 47 33 80t80 33q45 0 79 -33t34 -80v-385q0 -86 -30 -165t-81 -143.5t-123 -109.5t-154 -63v-277 q0 -47 -31.5 -79.5t-78.5 -32.5t-80 32.5t-33 79.5v277q-84 18 -154.5 63t-123 109.5t-82 143.5t-29.5 165zM426 1551q0 29 16 57l78 135q33 53 94 53q47 0 78 -32.5t31 -75.5q0 -14 -2 -29.5t-12 -30.5v2q-18 -33 -39 -66.5t-39 -68.5q-33 -53 -92 -53q-47 0 -80 32t-33 77 z" />
<glyph unicode="&#xe0;" horiz-adv-x="864" d="M57 371v274q0 78 30 146.5t82 121t121 82t148 29.5q78 0 148 -29.5t122 -82t81.5 -121t29.5 -146.5v-534q0 -47 -32.5 -79t-75.5 -32q-23 0 -46.5 12.5t-39.5 26.5q-88 -47 -187 -47q-78 0 -147.5 29.5t-121.5 82t-82 121t-30 146.5zM279 371q0 -66 47 -112t112 -46 q66 0 112 43t50 106v283q0 33 -13 61.5t-34.5 50t-51.5 34t-63 12.5q-68 0 -113.5 -46t-45.5 -112v-274zM240 1348q0 43 33 75.5t80 32.5q59 0 92 -53l78 -135q10 -16 12 -30.5t2 -26.5q0 -45 -30.5 -77t-78.5 -32q-59 0 -94 53l-78 135v-2q-16 27 -16 60z" />
<glyph unicode="&#xe1;" horiz-adv-x="864" d="M57 371v274q0 78 30 146.5t82 121t121 82t148 29.5q78 0 148 -29.5t122 -82t81.5 -121t29.5 -146.5v-534q0 -47 -32.5 -79t-75.5 -32q-23 0 -46.5 12.5t-39.5 26.5q-88 -47 -187 -47q-78 0 -147.5 29.5t-121.5 82t-82 121t-30 146.5zM279 371q0 -66 47 -112t112 -46 q66 0 112 43t50 106v283q0 33 -13 61.5t-34.5 50t-51.5 34t-63 12.5q-68 0 -113.5 -46t-45.5 -112v-274zM328 1215q0 29 16 57l78 135q33 53 94 53q47 0 78 -32.5t31 -75.5q0 -14 -2 -29.5t-12 -30.5v2q-18 -33 -39 -66.5t-39 -68.5q-33 -53 -92 -53q-47 0 -80 32t-33 77z " />
<glyph unicode="&#xe2;" horiz-adv-x="864" d="M57 371v274q0 78 30 146.5t82 121t121 82t148 29.5q78 0 148 -29.5t122 -82t81.5 -121t29.5 -146.5v-534q0 -47 -32.5 -79t-75.5 -32q-23 0 -46.5 12.5t-39.5 26.5q-88 -47 -187 -47q-78 0 -147.5 29.5t-121.5 82t-82 121t-30 146.5zM279 371q0 -66 47 -112t112 -46 q66 0 112 43t50 106v283q0 33 -13 61.5t-34.5 50t-51.5 34t-63 12.5q-68 0 -113.5 -46t-45.5 -112v-274zM196 1211q0 23 12.5 47t34.5 41l131 94q27 18 56 18q37 0 65 -22l125 -90q23 -16 35 -41t12 -47q0 -47 -35.5 -79t-78.5 -32q-16 0 -32 4t-30 16q-20 14 -31.5 20.5 t-31.5 20.5q-16 -10 -27.5 -20t-28.5 -21q-33 -20 -63 -20q-47 0 -80 32t-33 79z" />
<glyph unicode="&#xe3;" horiz-adv-x="864" d="M57 371v274q0 78 30 146.5t82 121t121 82t148 29.5q78 0 148 -29.5t122 -82t81.5 -121t29.5 -146.5v-534q0 -47 -32.5 -79t-75.5 -32q-23 0 -46.5 12.5t-39.5 26.5q-88 -47 -187 -47q-78 0 -147.5 29.5t-121.5 82t-82 121t-30 146.5zM279 371q0 -66 47 -112t112 -46 q66 0 112 43t50 106v283q0 33 -13 61.5t-34.5 50t-51.5 34t-63 12.5q-68 0 -113.5 -46t-45.5 -112v-274zM152 1208q0 39 22.5 65.5t53 42t64.5 21.5t56 6q14 0 40 -6t42 -12q37 -14 63.5 -13.5t48 8t39 15.5t35.5 8q45 0 78 -31.5t33 -78.5q0 -39 -24.5 -65t-58.5 -41 t-70.5 -21.5t-61.5 -6.5q-39 0 -74 10.5t-61 10.5q-35 0 -60.5 -10.5t-52.5 -10.5q-43 0 -77.5 32t-34.5 77z" />
<glyph unicode="&#xe4;" horiz-adv-x="864" d="M57 371v274q0 78 30 146.5t82 121t121 82t148 29.5q78 0 148 -29.5t122 -82t81.5 -121t29.5 -146.5v-534q0 -47 -32.5 -79t-75.5 -32q-23 0 -46.5 12.5t-39.5 26.5q-88 -47 -187 -47q-78 0 -147.5 29.5t-121.5 82t-82 121t-30 146.5zM279 371q0 -66 47 -112t112 -46 q66 0 112 43t50 106v283q0 33 -13 61.5t-34.5 50t-51.5 34t-63 12.5q-68 0 -113.5 -46t-45.5 -112v-274zM201 1268v55q0 47 31.5 79t76.5 32t78 -32t33 -79v-55q0 -45 -32 -77t-79 -32q-43 0 -75.5 32t-32.5 77zM450 1268v55q0 47 32 79t77 32t78 -32t33 -79v-55 q0 -45 -32 -77t-79 -32q-43 0 -76 32t-33 77z" />
<glyph unicode="&#xe5;" horiz-adv-x="864" d="M57 371v274q0 78 30 146.5t82 121t121 82t148 29.5q78 0 148 -29.5t122 -82t81.5 -121t29.5 -146.5v-534q0 -47 -32.5 -79t-75.5 -32q-23 0 -46.5 12.5t-39.5 26.5q-88 -47 -187 -47q-78 0 -147.5 29.5t-121.5 82t-82 121t-30 146.5zM279 371q0 -66 47 -112t112 -46 q66 0 112 43t50 106v283q0 33 -13 61.5t-34.5 50t-51.5 34t-63 12.5q-68 0 -113.5 -46t-45.5 -112v-274zM229 1306q0 43 16.5 81t44 65.5t64.5 44t80 16.5t80 -16.5t65.5 -44t45 -65.5t16.5 -81q0 -41 -16.5 -77.5t-45 -64.5t-65.5 -44t-80 -16t-80 16t-64.5 44t-44 64.5 t-16.5 77.5zM405 1306q0 -27 29 -26q10 0 19.5 8t9.5 18q0 12 -9.5 20.5t-19.5 8.5q-29 0 -29 -29z" />
<glyph unicode="&#xe6;" horiz-adv-x="1716" d="M210 371v274q0 78 30 146.5t82 121t121 82t148 29.5q78 0 148 -29.5t122 -82t81.5 -121t29.5 -146.5v-534q0 -47 -32.5 -79t-75.5 -32q-23 0 -46.5 12.5t-39.5 26.5q-88 -47 -187 -47q-78 0 -147.5 29.5t-121.5 82t-82 121t-30 146.5zM432 371q0 -66 47 -112t112 -46 q66 0 112 43t50 106v283q0 33 -13 61.5t-34.5 50t-51.5 34t-63 12.5q-68 0 -113.5 -46t-45.5 -112v-274zM757 371v274q0 78 30 146.5t82 121t121 82t148 29.5q78 0 148 -29.5t122 -82t81.5 -121t29.5 -146.5v-137q0 -47 -31.5 -79t-76.5 -32h-432v-26q0 -66 47 -112t112 -46 q25 0 56.5 6t60.5 41q12 14 30.5 29.5t40 24t46 7t49.5 -19.5q33 -23 44 -64q3 -11 3 -22q0 -32 -24 -68q-45 -59 -117 -107t-189 -48q-78 0 -147.5 29.5t-121.5 82t-82 121t-30 146.5zM979 618h321v27q0 33 -13 61.5t-34.5 50t-51.5 34t-63 12.5q-68 0 -113.5 -46 t-45.5 -112v-27z" />
<glyph unicode="&#xe7;" horiz-adv-x="823" d="M55 371v274q0 80 31 149.5t84 120t124 80t151 29.5q14 0 57 -6t95 -29.5t104.5 -71t87.5 -131.5q4 -8 6 -18t2 -20q0 -47 -32 -79t-79 -32q-33 0 -60.5 18.5t-39.5 49.5q-20 45 -61.5 71.5t-88.5 26.5q-68 0 -114.5 -46t-46.5 -112v-274q0 -33 13 -61.5t34.5 -50 t51.5 -34t62 -12.5q47 0 88 25.5t62 72.5q12 29 38.5 48.5t61.5 19.5q47 0 79 -33t32 -78q0 -16 -10 -41q-41 -92 -100.5 -140t-115 -69.5t-94.5 -23.5t-41 -2q-78 0 -147.5 29.5t-121.5 82t-82 121t-30 146.5zM205 -202q0 31 11.5 50t28.5 30.5t37.5 16.5t41.5 9q2 2 10 2 q-2 2 -2 4q-10 16 -17 37t-7 47v33q0 16 10 26.5t26 10.5h146q16 0 26.5 -10.5t10.5 -26.5v-33q0 -10 4 -20.5t10 -24.5q12 -29 23.5 -57.5t11.5 -59.5q0 -29 -11.5 -55.5t-41 -45.5t-80.5 -30.5t-129 -11.5q-45 0 -77 32t-32 77z" />
<glyph unicode="&#xe8;" horiz-adv-x="851" d="M57 371v274q0 78 30 146.5t82 121t121 82t148 29.5q78 0 148 -29.5t122 -82t81.5 -121t29.5 -146.5v-137q0 -47 -31.5 -79t-76.5 -32h-432v-26q0 -66 47 -112t112 -46q25 0 56.5 6t60.5 41q12 14 30.5 29.5t40 24t46 7t49.5 -19.5q33 -23 44 -64q3 -11 3 -22 q0 -32 -24 -68q-45 -59 -117 -107t-189 -48q-78 0 -147.5 29.5t-121.5 82t-82 121t-30 146.5zM279 618h321v27q0 33 -13 61.5t-34.5 50t-51.5 34t-63 12.5q-68 0 -113.5 -46t-45.5 -112v-27zM229 1350q0 43 33 75.5t80 32.5q59 0 92 -53l78 -135q10 -16 12 -30.5t2 -26.5 q0 -45 -30.5 -77t-78.5 -32q-59 0 -94 53l-78 135v-2q-16 27 -16 60z" />
<glyph unicode="&#xe9;" horiz-adv-x="851" d="M57 371v274q0 78 30 146.5t82 121t121 82t148 29.5q78 0 148 -29.5t122 -82t81.5 -121t29.5 -146.5v-137q0 -47 -31.5 -79t-76.5 -32h-432v-26q0 -66 47 -112t112 -46q25 0 56.5 6t60.5 41q12 14 30.5 29.5t40 24t46 7t49.5 -19.5q33 -23 44 -64q3 -11 3 -22 q0 -32 -24 -68q-45 -59 -117 -107t-189 -48q-78 0 -147.5 29.5t-121.5 82t-82 121t-30 146.5zM279 618h321v27q0 33 -13 61.5t-34.5 50t-51.5 34t-63 12.5q-68 0 -113.5 -46t-45.5 -112v-27zM338 1211q0 29 16 57l78 135q33 53 94 53q47 0 78 -32.5t31 -75.5q0 -14 -2 -29.5 t-12 -30.5v2q-18 -33 -39 -66.5t-39 -68.5q-33 -53 -92 -53q-47 0 -80 32t-33 77z" />
<glyph unicode="&#xea;" horiz-adv-x="851" d="M57 371v274q0 78 30 146.5t82 121t121 82t148 29.5q78 0 148 -29.5t122 -82t81.5 -121t29.5 -146.5v-137q0 -47 -31.5 -79t-76.5 -32h-432v-26q0 -66 47 -112t112 -46q25 0 56.5 6t60.5 41q12 14 30.5 29.5t40 24t46 7t49.5 -19.5q33 -23 44 -64q3 -11 3 -22 q0 -32 -24 -68q-45 -59 -117 -107t-189 -48q-78 0 -147.5 29.5t-121.5 82t-82 121t-30 146.5zM279 618h321v27q0 33 -13 61.5t-34.5 50t-51.5 34t-63 12.5q-68 0 -113.5 -46t-45.5 -112v-27zM184 1215q0 23 12.5 47t34.5 41l131 94q27 18 56 18q37 0 65 -22l125 -90 q23 -16 35 -41t12 -47q0 -47 -35.5 -79t-78.5 -32q-16 0 -32 4t-30 16q-20 14 -31.5 20.5t-31.5 20.5q-16 -10 -27.5 -20t-28.5 -21q-33 -20 -63 -20q-47 0 -80 32t-33 79z" />
<glyph unicode="&#xeb;" horiz-adv-x="851" d="M57 371v274q0 78 30 146.5t82 121t121 82t148 29.5q78 0 148 -29.5t122 -82t81.5 -121t29.5 -146.5v-137q0 -47 -31.5 -79t-76.5 -32h-432v-26q0 -66 47 -112t112 -46q25 0 56.5 6t60.5 41q12 14 30.5 29.5t40 24t46 7t49.5 -19.5q33 -23 44 -64q3 -11 3 -22 q0 -32 -24 -68q-45 -59 -117 -107t-189 -48q-78 0 -147.5 29.5t-121.5 82t-82 121t-30 146.5zM279 618h321v27q0 33 -13 61.5t-34.5 50t-51.5 34t-63 12.5q-68 0 -113.5 -46t-45.5 -112v-27zM211 1221v55q0 47 31.5 79t76.5 32t78 -32t33 -79v-55q0 -45 -32 -77t-79 -32 q-43 0 -75.5 32t-32.5 77zM460 1221v55q0 47 32 79t77 32t78 -32t33 -79v-55q0 -45 -32 -77t-79 -32q-43 0 -76 32t-33 77z" />
<glyph unicode="&#xec;" horiz-adv-x="430" d="M59 1317q0 43 33 75.5t80 32.5q59 0 92 -53l78 -135q10 -16 12 -30.5t2 -26.5q0 -45 -30.5 -77t-77.5 -32q-59 0 -94 53l-78 136v-3q-17 27 -17 60zM143 111v794q0 47 32 79t79 32q45 0 78 -32t33 -79v-794q0 -47 -33 -79t-78 -32t-78 32t-33 79z" />
<glyph unicode="&#xed;" horiz-adv-x="370" d="M66 111v794q0 47 31.5 79t78.5 32q45 0 78 -32t33 -79v-794q0 -47 -32 -79t-79 -32q-45 0 -77.5 32t-32.5 79zM70 1182q0 29 16 57l78 135q33 53 94 53q47 0 78 -32.5t31 -75.5q0 -14 -2.5 -29.5t-12.5 -29.5v2q-18 -33 -38.5 -67t-39.5 -69q-33 -53 -92 -53 q-47 0 -79.5 32t-32.5 77z" />
<glyph unicode="&#xee;" horiz-adv-x="389" d="M-39 1155q0 23 12.5 47.5t34.5 40.5l131 94q27 18 56 19q37 0 65 -23l125 -90q23 -16 35 -40.5t12 -47.5q0 -47 -36 -79t-79 -32q-16 0 -31.5 4.5t-29.5 16.5q-20 14 -31.5 20.5t-31.5 20.5q-16 -10 -27.5 -20.5t-28.5 -20.5q-33 -20 -63 -21q-47 0 -80 32t-33 79z M86 111v794q0 47 32 79t77 32t77.5 -32t32.5 -79v-794q0 -47 -31.5 -79t-78.5 -32q-43 0 -76 32t-33 79z" />
<glyph unicode="&#xef;" horiz-adv-x="382" d="M-49 1182v55q0 47 31.5 79t76.5 32t78 -32t33 -79v-55q0 -45 -32 -77t-79 -32q-43 0 -75.5 32t-32.5 77zM76 111v794q0 47 32.5 79t77.5 32t78 -32t33 -79v-794q0 -47 -32 -79t-79 -32q-45 0 -77.5 32t-32.5 79zM201 1182v55q0 47 31.5 79t76.5 32t78 -32t33 -79v-55 q0 -45 -32 -77t-79 -32q-43 0 -75.5 32t-32.5 77z" />
<glyph unicode="&#xf1;" horiz-adv-x="872" d="M66 102v543q0 78 29.5 146.5t82 121t121 82t148.5 29.5q78 0 147.5 -29.5t121.5 -82t82 -121t30 -146.5v-543q0 -47 -33 -78.5t-78 -31.5t-77 31.5t-32 78.5v543q0 33 -13 61.5t-34.5 50t-51.5 34t-62 12.5q-68 0 -115 -46t-47 -112v-543q0 -47 -33 -78.5t-76 -31.5 q-47 0 -78.5 31.5t-31.5 78.5zM152 1196q0 39 22.5 65.5t53 42t64.5 21.5t56 6q14 0 40 -6t42 -12q37 -14 63.5 -13.5t48 8t39 15.5t35.5 8q45 0 78 -31.5t33 -78.5q0 -39 -24.5 -65t-58.5 -41t-70.5 -21.5t-61.5 -6.5q-39 0 -74 10.5t-61 10.5q-35 0 -60.5 -10.5 t-52.5 -10.5q-43 0 -77.5 32t-34.5 77z" />
<glyph unicode="&#xf2;" horiz-adv-x="858" d="M57 371v274q0 78 30 146.5t82 121t121 82t148 29.5q78 0 148 -29.5t122 -82t81.5 -121t29.5 -146.5v-274q0 -78 -29.5 -146.5t-81.5 -121t-121 -82t-149 -29.5q-78 0 -147.5 29.5t-121.5 82t-82 121t-30 146.5zM279 371q0 -66 47 -112t112 -46q70 0 116 46t46 112v274 q0 33 -13 61.5t-34.5 50t-51.5 34t-63 12.5q-68 0 -113.5 -46t-45.5 -112v-274zM240 1348q0 43 33 75.5t80 32.5q59 0 92 -53l78 -135q10 -16 12 -30.5t2 -26.5q0 -45 -30.5 -77t-78.5 -32q-59 0 -94 53l-78 135v-2q-16 27 -16 60z" />
<glyph unicode="&#xf3;" horiz-adv-x="858" d="M57 371v274q0 78 30 146.5t82 121t121 82t148 29.5q78 0 148 -29.5t122 -82t81.5 -121t29.5 -146.5v-274q0 -78 -29.5 -146.5t-81.5 -121t-121 -82t-149 -29.5q-78 0 -147.5 29.5t-121.5 82t-82 121t-30 146.5zM279 371q0 -66 47 -112t112 -46q70 0 116 46t46 112v274 q0 33 -13 61.5t-34.5 50t-51.5 34t-63 12.5q-68 0 -113.5 -46t-45.5 -112v-274zM321 1211q0 29 16 57l78 135q33 53 94 53q47 0 78 -32.5t31 -75.5q0 -14 -2 -29.5t-12 -30.5v2q-18 -33 -39 -66.5t-39 -68.5q-33 -53 -92 -53q-47 0 -80 32t-33 77z" />
<glyph unicode="&#xf4;" horiz-adv-x="858" d="M57 371v274q0 78 30 146.5t82 121t121 82t148 29.5q78 0 148 -29.5t122 -82t81.5 -121t29.5 -146.5v-274q0 -78 -29.5 -146.5t-81.5 -121t-121 -82t-149 -29.5q-78 0 -147.5 29.5t-121.5 82t-82 121t-30 146.5zM279 371q0 -66 47 -112t112 -46q70 0 116 46t46 112v274 q0 33 -13 61.5t-34.5 50t-51.5 34t-63 12.5q-68 0 -113.5 -46t-45.5 -112v-274zM200 1215q0 23 12.5 47t34.5 41l131 94q27 18 56 18q37 0 65 -22l125 -90q23 -16 35 -41t12 -47q0 -47 -35.5 -79t-78.5 -32q-16 0 -32 4t-30 16q-20 14 -31.5 20.5t-31.5 20.5 q-16 -10 -27.5 -20t-28.5 -21q-33 -20 -63 -20q-47 0 -80 32t-33 79z" />
<glyph unicode="&#xf5;" horiz-adv-x="858" d="M57 371v274q0 78 30 146.5t82 121t121 82t148 29.5q78 0 148 -29.5t122 -82t81.5 -121t29.5 -146.5v-274q0 -78 -29.5 -146.5t-81.5 -121t-121 -82t-149 -29.5q-78 0 -147.5 29.5t-121.5 82t-82 121t-30 146.5zM279 371q0 -66 47 -112t112 -46q70 0 116 46t46 112v274 q0 33 -13 61.5t-34.5 50t-51.5 34t-63 12.5q-68 0 -113.5 -46t-45.5 -112v-274zM144 1212q0 39 22.5 65.5t53 42t64.5 21.5t56 6q14 0 40 -6t42 -12q37 -14 63.5 -13.5t48 8t39 15.5t35.5 8q45 0 78 -31.5t33 -78.5q0 -39 -24.5 -65t-58.5 -41t-70.5 -21.5t-61.5 -6.5 q-39 0 -74 10.5t-61 10.5q-35 0 -60.5 -10.5t-52.5 -10.5q-43 0 -77.5 32t-34.5 77z" />
<glyph unicode="&#xf6;" horiz-adv-x="858" d="M57 371v274q0 78 30 146.5t82 121t121 82t148 29.5q78 0 148 -29.5t122 -82t81.5 -121t29.5 -146.5v-274q0 -78 -29.5 -146.5t-81.5 -121t-121 -82t-149 -29.5q-78 0 -147.5 29.5t-121.5 82t-82 121t-30 146.5zM279 371q0 -66 47 -112t112 -46q70 0 116 46t46 112v274 q0 33 -13 61.5t-34.5 50t-51.5 34t-63 12.5q-68 0 -113.5 -46t-45.5 -112v-274zM209 1223v55q0 47 31.5 79t76.5 32t78 -32t33 -79v-55q0 -45 -32 -77t-79 -32q-43 0 -75.5 32t-32.5 77zM458 1223v55q0 47 32 79t77 32t78 -32t33 -79v-55q0 -45 -32 -77t-79 -32 q-43 0 -76 32t-33 77z" />
<glyph unicode="&#xf7;" horiz-adv-x="784" d="M29 580q0 43 31.5 75.5t76.5 32.5h522q47 0 79 -31.5t32 -76.5t-31.5 -78t-79.5 -33h-522q-45 0 -76.5 32t-31.5 79zM291 301q0 47 31.5 79t78.5 32q45 0 78 -32t33 -79q0 -45 -31.5 -78t-79.5 -33q-45 0 -77.5 33t-32.5 78zM291 852q0 45 31.5 77t78.5 32q45 0 78 -32 t33 -77q0 -47 -31.5 -79t-79.5 -32q-45 0 -77.5 32t-32.5 79z" />
<glyph unicode="&#xf8;" horiz-adv-x="966" d="M108 371v274q0 78 30 146.5t82 121t121 82t148 29.5q78 0 148 -29.5t122 -82t81.5 -121t29.5 -146.5v-274q0 -78 -29.5 -146.5t-81.5 -121t-121 -82t-149 -29.5q-78 0 -147.5 29.5t-121.5 82t-82 121t-30 146.5zM330 371q0 -66 47 -112t112 -46q70 0 116 46t46 112v274 q0 33 -13 61.5t-34.5 50t-51.5 34t-63 12.5q-68 0 -113.5 -46t-45.5 -112v-274zM118.731 2.74121q-3.46289 33.7725 13.8506 62.3496l557.486 968.151q10.3877 19.917 28.999 30.3086q18.6123 10.3916 37.6562 13.8555q42.418 5.19531 72.7158 -19.4844t35.4922 -61.917 q1.73145 -13.8555 -0.865234 -30.7412q-2.59766 -16.8867 -11.2539 -31.6084q-74.4473 -129.895 -142.834 -249.398q-68.3877 -119.503 -135.477 -236.409q-67.0889 -116.905 -135.476 -235.976q-68.3877 -119.07 -142.834 -248.1q-10.3887 -19.917 -28.1348 -30.3086 t-37.6562 -13.8555q-44.1484 -5.19629 -75.3125 21.2158q-31.1631 26.4121 -36.3574 61.917z" />
<glyph unicode="&#xf9;" horiz-adv-x="872" d="M66 371v542q0 47 31.5 79t78.5 32q43 0 76 -31.5t33 -79.5v-542q0 -66 47 -112t115 -46q33 0 62.5 12.5t51 34t34.5 50t13 61.5v542q0 47 32 79t77 32t78 -31.5t33 -79.5v-542q0 -78 -30 -146.5t-82 -121t-122 -82t-147 -29.5q-80 0 -148.5 29.5t-121 82t-82 121 t-29.5 146.5zM258 1350q0 43 33 75.5t80 32.5q59 0 92 -53l78 -135q10 -16 12 -30.5t2 -26.5q0 -45 -30.5 -77t-78.5 -32q-59 0 -94 53l-78 135v-2q-16 27 -16 60z" />
<glyph unicode="&#xfa;" horiz-adv-x="872" d="M66 371v542q0 47 31.5 79t78.5 32q43 0 76 -31.5t33 -79.5v-542q0 -66 47 -112t115 -46q33 0 62.5 12.5t51 34t34.5 50t13 61.5v542q0 47 32 79t77 32t78 -31.5t33 -79.5v-542q0 -78 -30 -146.5t-82 -121t-122 -82t-147 -29.5q-80 0 -148.5 29.5t-121 82t-82 121 t-29.5 146.5zM336 1213q0 29 16 57l78 135q33 53 94 53q47 0 78 -32.5t31 -75.5q0 -14 -2 -29.5t-12 -30.5v2q-18 -33 -39 -66.5t-39 -68.5q-33 -53 -92 -53q-47 0 -80 32t-33 77z" />
<glyph unicode="&#xfb;" horiz-adv-x="872" d="M66 371v542q0 47 31.5 79t78.5 32q43 0 76 -31.5t33 -79.5v-542q0 -66 47 -112t115 -46q33 0 62.5 12.5t51 34t34.5 50t13 61.5v542q0 47 32 79t77 32t78 -31.5t33 -79.5v-542q0 -78 -30 -146.5t-82 -121t-122 -82t-147 -29.5q-80 0 -148.5 29.5t-121 82t-82 121 t-29.5 146.5zM209 1215q0 23 12.5 47t34.5 41l131 94q27 18 56 18q37 0 65 -22l125 -90q23 -16 35 -41t12 -47q0 -47 -35.5 -79t-78.5 -32q-16 0 -32 4t-30 16q-20 14 -31.5 20.5t-31.5 20.5q-16 -10 -27.5 -20t-28.5 -21q-33 -20 -63 -20q-47 0 -80 32t-33 79z" />
<glyph unicode="&#xfc;" horiz-adv-x="872" d="M66 371v542q0 47 31.5 79t78.5 32q43 0 76 -31.5t33 -79.5v-542q0 -66 47 -112t115 -46q33 0 62.5 12.5t51 34t34.5 50t13 61.5v542q0 47 32 79t77 32t78 -31.5t33 -79.5v-542q0 -78 -30 -146.5t-82 -121t-122 -82t-147 -29.5q-80 0 -148.5 29.5t-121 82t-82 121 t-29.5 146.5zM209 1270v55q0 47 31.5 79t76.5 32t78 -32t33 -79v-55q0 -45 -32 -77t-79 -32q-43 0 -75.5 32t-32.5 77zM458 1270v55q0 47 32 79t77 32t78 -32t33 -79v-55q0 -45 -32 -77t-79 -32q-43 0 -76 32t-33 77z" />
<glyph unicode="&#xfd;" horiz-adv-x="831" d="M45 354v559q0 47 32 79t79 32q45 0 77.5 -31.5t32.5 -79.5v-559q0 -66 46.5 -111.5t113.5 -45.5q33 0 62.5 12t51 33.5t35 50.5t13.5 61v559q0 47 31.5 79t79.5 32q43 0 75.5 -31.5t32.5 -79.5v-559q0 -66 -20.5 -124t-56.5 -105t-85 -82t-108 -51v-215q0 -47 -32 -79 t-79 -32q-43 0 -75.5 32t-32.5 79v215q-59 16 -109.5 51t-86.5 82t-56.5 105t-20.5 124zM328 1213q0 29 16 57l78 135q33 53 94 53q47 0 78 -32.5t31 -75.5q0 -14 -2 -29.5t-12 -30.5v2q-18 -33 -39 -66.5t-39 -68.5q-33 -53 -92 -53q-47 0 -80 32t-33 77z" />
<glyph unicode="&#xff;" horiz-adv-x="831" d="M45 354v559q0 47 32 79t79 32q45 0 77.5 -31.5t32.5 -79.5v-559q0 -66 46.5 -111.5t113.5 -45.5q33 0 62.5 12t51 33.5t35 50.5t13.5 61v559q0 47 31.5 79t79.5 32q43 0 75.5 -31.5t32.5 -79.5v-559q0 -66 -20.5 -124t-56.5 -105t-85 -82t-108 -51v-215q0 -47 -32 -79 t-79 -32q-43 0 -75.5 32t-32.5 79v215q-59 16 -109.5 51t-86.5 82t-56.5 105t-20.5 124zM191 1223v55q0 47 31.5 79t76.5 32t78 -32t33 -79v-55q0 -45 -32 -77t-79 -32q-43 0 -75.5 32t-32.5 77zM440 1223v55q0 47 32 79t77 32t78 -32t33 -79v-55q0 -45 -32 -77t-79 -32 q-43 0 -76 32t-33 77z" />
<glyph unicode="&#x152;" horiz-adv-x="1861" d="M52 455v442q0 102 39.5 193.5t107.5 159t159 106.5t193 39t193.5 -39t159 -106.5t107.5 -159t40 -193.5v-442q0 -102 -40 -192.5t-107.5 -158t-158.5 -107.5t-194 -40q-102 0 -193 40t-159 107.5t-107.5 158t-39.5 192.5zM277 455q0 -55 21.5 -105.5t59.5 -87.5t88 -58.5 t105 -21.5q57 0 107.5 21.5t87.5 58.5t58.5 87t21.5 106v442q0 55 -21.5 105.5t-59.5 87t-88 58t-106 21.5q-57 0 -107 -21.5t-87 -58t-58.5 -87t-21.5 -105.5v-442zM827 113v1126q0 47 32.5 80t80.5 33h774q47 0 78.5 -33t31.5 -80q0 -45 -31.5 -78t-78.5 -33h-664v-360 h191q47 0 78.5 -31.5t31.5 -79.5q0 -47 -31.5 -79.5t-78.5 -32.5h-191v-322h664q47 0 78.5 -31.5t31.5 -78.5t-31.5 -80t-78.5 -33h-774q-47 0 -80 33t-33 80z" />
<glyph unicode="&#x153;" horiz-adv-x="1478" d="M94 371v274q0 78 30 146.5t82 121t121 82t148 29.5q78 0 148 -29.5t122 -82t81.5 -121t29.5 -146.5v-274q0 -78 -29.5 -146.5t-81.5 -121t-121 -82t-149 -29.5q-78 0 -147.5 29.5t-121.5 82t-82 121t-30 146.5zM316 371q0 -66 47 -112t112 -46q70 0 116 46t46 112v274 q0 33 -13 61.5t-34.5 50t-51.5 34t-63 12.5q-68 0 -113.5 -46t-45.5 -112v-274zM638 371v274q0 78 30 146.5t82 121t121 82t148 29.5q78 0 148 -29.5t122 -82t81.5 -121t29.5 -146.5v-137q0 -47 -31.5 -79t-76.5 -32h-432v-26q0 -66 47 -112t112 -46q25 0 56.5 6t60.5 41 q12 14 30.5 29.5t40 24t46 7t49.5 -19.5q33 -23 44 -64q3 -11 3 -22q0 -32 -24 -68q-45 -59 -117 -107t-189 -48q-78 0 -147.5 29.5t-121.5 82t-82 121t-30 146.5zM860 618h321v27q0 33 -13 61.5t-34.5 50t-51.5 34t-63 12.5q-68 0 -113.5 -46t-45.5 -112v-27z" />
<glyph unicode="&#x178;" horiz-adv-x="1058" d="M37 862v385q0 47 33 80t80 33q45 0 78.5 -33t33.5 -80v-385q0 -55 21.5 -104t59.5 -86t88.5 -58.5t107.5 -21.5t106.5 21.5t86 58.5t58 86t21.5 104v385q0 47 33 80t80 33q45 0 79 -33t34 -80v-385q0 -86 -30 -165t-81 -143.5t-123 -109.5t-154 -63v-277 q0 -47 -31.5 -79.5t-78.5 -32.5t-80 32.5t-33 79.5v277q-84 18 -154.5 63t-123 109.5t-82 143.5t-29.5 165zM301 1606v55q0 47 31.5 79t76.5 32t78 -32t33 -79v-55q0 -45 -32 -77t-79 -32q-43 0 -75.5 32t-32.5 77zM550 1606v55q0 47 32 79t77 32t78 -32t33 -79v-55 q0 -45 -32 -77t-79 -32q-43 0 -76 32t-33 77z" />
<glyph unicode="&#x2c6;" horiz-adv-x="577" d="M53 1133q0 23 12.5 47t34.5 41l131 94q27 18 56 18q37 0 65 -22l125 -90q23 -16 35 -41t12 -47q0 -47 -35.5 -79t-78.5 -32q-16 0 -32 4t-30 16q-20 14 -31.5 20.5t-31.5 20.5q-16 -10 -27.5 -20t-28.5 -21q-33 -20 -63 -20q-47 0 -80 32t-33 79z" />
<glyph unicode="&#x2da;" horiz-adv-x="524" d="M57 1208q0 43 16.5 81t44 65.5t64.5 44t80 16.5t80 -16.5t65.5 -44t45 -65.5t16.5 -81q0 -41 -16.5 -77.5t-45 -64.5t-65.5 -44t-80 -16t-80 16t-64.5 44t-44 64.5t-16.5 77.5zM233 1208q0 -27 29 -26q10 0 19.5 8t9.5 18q0 12 -9.5 20.5t-19.5 8.5q-29 0 -29 -29z" />
<glyph unicode="&#x2dc;" horiz-adv-x="710" d="M68 1194q0 39 22.5 65.5t53 42t64.5 21.5t56 6q14 0 40 -6t42 -12q37 -14 63.5 -13.5t48 8t39 15.5t35.5 8q45 0 78 -31.5t33 -78.5q0 -39 -24.5 -65t-58.5 -41t-70.5 -21.5t-61.5 -6.5q-39 0 -74 10.5t-61 10.5q-35 0 -60.5 -10.5t-52.5 -10.5q-43 0 -77.5 32t-34.5 77z " />
<glyph unicode="&#x2000;" horiz-adv-x="923" />
<glyph unicode="&#x2001;" horiz-adv-x="1847" />
<glyph unicode="&#x2002;" horiz-adv-x="923" />
<glyph unicode="&#x2003;" horiz-adv-x="1847" />
<glyph unicode="&#x2004;" horiz-adv-x="614" />
<glyph unicode="&#x2005;" horiz-adv-x="460" />
<glyph unicode="&#x2006;" horiz-adv-x="307" />
<glyph unicode="&#x2007;" horiz-adv-x="307" />
<glyph unicode="&#x2008;" horiz-adv-x="229" />
<glyph unicode="&#x2009;" horiz-adv-x="368" />
<glyph unicode="&#x200a;" horiz-adv-x="102" />
<glyph unicode="&#x2010;" horiz-adv-x="890" d="M74 573q0 43 31.5 76t76.5 33h523q47 0 78.5 -32t31.5 -77t-31.5 -77.5t-78.5 -32.5h-523q-45 0 -76.5 31.5t-31.5 78.5z" />
<glyph unicode="&#x2011;" horiz-adv-x="890" d="M74 573q0 43 31.5 76t76.5 33h523q47 0 78.5 -32t31.5 -77t-31.5 -77.5t-78.5 -32.5h-523q-45 0 -76.5 31.5t-31.5 78.5z" />
<glyph unicode="&#x2012;" horiz-adv-x="890" d="M74 573q0 43 31.5 76t76.5 33h523q47 0 78.5 -32t31.5 -77t-31.5 -77.5t-78.5 -32.5h-523q-45 0 -76.5 31.5t-31.5 78.5z" />
<glyph unicode="&#x2013;" horiz-adv-x="968" d="M76 573q0 43 32.5 76t77.5 33h598q45 0 77 -32t32 -77t-32 -77.5t-77 -32.5h-598q-45 0 -77.5 31.5t-32.5 78.5z" />
<glyph unicode="&#x2014;" horiz-adv-x="1198" d="M76 573q0 43 31.5 76t76.5 33h826q47 0 78.5 -32t31.5 -77t-31.5 -77.5t-78.5 -32.5h-826q-45 0 -76.5 31.5t-31.5 78.5z" />
<glyph unicode="&#x2018;" horiz-adv-x="407" d="M72 1090v149q0 41 33.5 76t74.5 35h76q47 0 79 -33t32 -78q0 -37 -19.5 -64.5t-54.5 -39.5v-45q0 -45 -33 -78t-78 -33q-47 0 -78.5 33t-31.5 78z" />
<glyph unicode="&#x2019;" horiz-adv-x="411" d="M43 1090q0 37 19.5 65.5t54.5 38.5v45q0 47 32.5 79t77.5 32t78 -32t33 -79v-149q0 -41 -34 -76t-75 -35h-75q-47 0 -79 33t-32 78z" />
<glyph unicode="&#x201a;" horiz-adv-x="411" d="M43 -47q0 37 19.5 64.5t54.5 39.5v45q0 47 32.5 79t77.5 32t78 -31.5t33 -79.5v-149q0 -41 -34 -76t-75 -35h-75q-47 0 -79 33t-32 78z" />
<glyph unicode="&#x201c;" horiz-adv-x="761" d="M78 1090v149q0 41 32.5 76t73.5 35h76q47 0 79 -33t32 -78q0 -37 -19.5 -64.5t-54.5 -39.5v-45q0 -45 -33 -78t-78 -33t-76.5 33t-31.5 78zM408 1090v149q0 41 32.5 76t73.5 35h76q47 0 78.5 -33t31.5 -78q0 -37 -19 -64.5t-54 -39.5v-45q0 -45 -33 -78t-78 -33t-76.5 33 t-31.5 78z" />
<glyph unicode="&#x201d;" horiz-adv-x="782" d="M61 1090q0 37 19.5 65.5t54.5 38.5v45q0 47 33 79t78 32t76.5 -32t31.5 -79v-149q0 -41 -32.5 -76t-73.5 -35h-76q-47 0 -79 33t-32 78zM412 1090q0 37 19.5 65.5t53.5 38.5v45q0 47 33 79t78 32t77 -32t32 -79v-149q0 -41 -33 -76t-74 -35h-76q-47 0 -78.5 33t-31.5 78z " />
<glyph unicode="&#x201e;" horiz-adv-x="622" d="M76 -47v149q0 47 31.5 79t76.5 32t78 -31.5t33 -79.5v-149q0 -47 -32 -79t-79 -32q-43 0 -75.5 32t-32.5 79zM324 -47v149q0 47 32.5 79t77.5 32t78 -31.5t33 -79.5v-149q0 -47 -32 -79t-79 -32q-45 0 -77.5 32t-32.5 79z" />
<glyph unicode="&#x2022;" horiz-adv-x="471" d="M57 645q0 74 52.5 126t126.5 52t126 -52t52 -126t-52.5 -126t-125.5 -52q-74 0 -126.5 52t-52.5 126z" />
<glyph unicode="&#x2026;" horiz-adv-x="854" d="M74 111q0 45 32.5 76.5t77.5 31.5t78 -31.5t33 -76.5q0 -47 -32 -79t-79 -32q-45 0 -77.5 32t-32.5 79zM317 111q0 45 32 76.5t79 31.5q43 0 76 -31.5t33 -76.5q0 -47 -32 -79t-77 -32t-78 32t-33 79zM559 111q0 45 32 76.5t79 31.5q45 0 77.5 -31.5t32.5 -76.5 q0 -47 -31.5 -79t-78.5 -32q-45 0 -78 32t-33 79z" />
<glyph unicode="&#x202f;" horiz-adv-x="368" />
<glyph unicode="&#x2039;" horiz-adv-x="579" d="M18 498q0 39 25 73l268 310l-2 -2q16 23 39 32t45 9q49 0 80 -33t31 -78q0 -16 -5 -34.5t-20 -35.5l-211 -239q53 -59 105.5 -117.5t105.5 -118.5q25 -31 25 -74q0 -41 -31 -74.5t-80 -33.5t-84 41q-66 76 -135.5 156.5t-134.5 156.5q-21 27 -21 62z" />
<glyph unicode="&#x203a;" horiz-adv-x="581" d="M76 190q0 41 26 74l211 236l-211 239q-14 16 -20 35t-6 35q0 45 31.5 78t82.5 33t84 -41l-2 2q66 -78 132.5 -155t132.5 -155q27 -35 26 -73q0 -35 -20 -62l-269 -313q-37 -41 -84 -41q-51 0 -82.5 33.5t-31.5 74.5z" />
<glyph unicode="&#x2044;" horiz-adv-x="868" d="M2 84q-4 39 16 72l644 1118q12 23 33.5 35t43.5 16q49 6 84 -22.5t41 -71.5q2 -16 -1 -35.5t-13 -36.5q-86 -150 -165 -288t-156.5 -273t-156.5 -272.5t-165 -286.5q-12 -23 -32.5 -35t-43.5 -16q-51 -6 -87 24.5t-42 71.5z" />
<glyph unicode="&#x205f;" horiz-adv-x="460" />
<glyph unicode="&#x20ac;" horiz-adv-x="1208" d="M39 541q0 45 31.5 77.5t76.5 32.5h25v70h-25q-45 0 -76.5 31.5t-31.5 78.5q0 43 31.5 76t76.5 33h27q8 94 49 178t107.5 145.5t154.5 97.5t187 36q76 0 145.5 -21.5t129 -61.5t105.5 -94.5t74 -119.5q8 -14 11.5 -30.5t3.5 -29.5q0 -41 -29 -75.5t-82 -34.5 q-70 0 -102 67q-31 76 -99.5 125t-156.5 49q-53 0 -99.5 -18t-83 -49t-60 -73t-32.5 -91h273q47 0 78.5 -31.5t31.5 -77.5q0 -45 -31.5 -77.5t-78.5 -32.5h-275v-70h275q47 0 78.5 -31.5t31.5 -78.5q0 -45 -31.5 -78t-78.5 -33h-275q6 -53 30 -98t60.5 -78t84.5 -52.5 t102 -19.5q88 0 156.5 50.5t101.5 125.5q14 29 44 47.5t56 18.5q51 0 81 -35t30 -76q0 -25 -8 -43q-27 -70 -73 -127t-105.5 -99t-131 -64.5t-151.5 -22.5q-100 0 -189.5 37t-157 101.5t-108.5 150.5t-45 184h-25q-45 0 -76.5 33t-31.5 78z" />
<glyph unicode="&#x2122;" horiz-adv-x="1544" d="M61 1255q0 31 21.5 53.5t54.5 22.5h391q33 0 54.5 -22.5t21.5 -53.5t-21.5 -52t-54.5 -21h-120v-500q0 -29 -23 -51.5t-53 -22.5q-29 0 -52.5 22.5t-23.5 51.5v500h-119q-33 0 -54.5 19t-21.5 54zM598 682v381q0 55 19.5 105.5t54.5 87t82 58t104 21.5q53 0 96 -18.5 t76 -48.5q35 33 77 50t97 17q57 0 104.5 -21.5t82 -58t54 -87t19.5 -105.5v-381q0 -29 -21.5 -51.5t-53.5 -22.5q-29 0 -51.5 22.5t-22.5 51.5v381q0 51 -31 86t-80 35q-47 0 -72.5 -35t-25.5 -86v-381q0 -29 -21.5 -51.5t-54.5 -22.5t-53.5 22.5t-20.5 51.5v383 q0 49 -25.5 84t-72.5 35t-77.5 -35t-30.5 -86v-381q0 -29 -24 -51.5t-52 -22.5q-33 0 -54.5 22.5t-21.5 51.5z" />
<glyph unicode="&#xe000;" horiz-adv-x="1025" d="M0 1025h1025v-1025h-1025v1025z" />
<glyph unicode="&#xfb01;" horiz-adv-x="1236" d="M936 102v811q0 47 31.5 79t76.5 32t78 -31.5t33 -79.5v-811q0 -47 -31.5 -78.5t-79.5 -31.5q-43 0 -75.5 31.5t-32.5 78.5zM936 1184v55q0 47 31.5 79t76.5 32t78 -32t33 -79v-55q0 -45 -31.5 -77t-79.5 -32q-43 0 -75.5 32t-32.5 77zM76 102v869q0 80 30.5 149.5 t83 119.5t123 80t150.5 30q14 0 55 -5.5t93.5 -29t105.5 -71.5t90 -132q10 -25 10 -39q0 -47 -31.5 -78.5t-78.5 -31.5q-76 0 -103 69l2 -2q-20 47 -61 73.5t-88 26.5q-33 0 -62.5 -13t-51 -34.5t-35 -50t-13.5 -61.5v-353h168q45 0 76.5 -32.5t31.5 -77.5q0 -47 -31.5 -79 t-76.5 -32h-168v-295q0 -47 -33 -78.5t-78 -31.5t-76.5 31.5t-31.5 78.5z" />
<glyph unicode="&#xfb02;" horiz-adv-x="1241" d="M936 102v1131q0 47 31.5 78.5t76.5 31.5t78 -31.5t33 -78.5v-1131q0 -47 -31.5 -78.5t-79.5 -31.5q-43 0 -75.5 31.5t-32.5 78.5zM76 102v869q0 80 30.5 149.5t83 119.5t123 80t150.5 30q14 0 55 -5.5t93.5 -29t105.5 -71.5t90 -132q10 -25 10 -39q0 -47 -31.5 -78.5 t-78.5 -31.5q-76 0 -103 69l2 -2q-20 47 -61 73.5t-88 26.5q-33 0 -62.5 -13t-51 -34.5t-35 -50t-13.5 -61.5v-353h168q45 0 76.5 -32.5t31.5 -77.5q0 -47 -31.5 -79t-76.5 -32h-168v-295q0 -47 -33 -78.5t-78 -31.5t-76.5 31.5t-31.5 78.5z" />
<glyph unicode="&#xfb03;" horiz-adv-x="2093" d="M1792 102v811q0 47 31.5 79t76.5 32t78 -31.5t33 -79.5v-811q0 -47 -31.5 -78.5t-79.5 -31.5q-43 0 -75.5 31.5t-32.5 78.5zM1792 1184v55q0 47 31.5 79t76.5 32t78 -32t33 -79v-55q0 -45 -31.5 -77t-79.5 -32q-43 0 -75.5 32t-32.5 77zM932 102v869q0 80 30.5 149.5 t83 119.5t123 80t150.5 30q14 0 55 -5.5t93.5 -29t105.5 -71.5t90 -132q10 -25 10 -39q0 -47 -31.5 -78.5t-78.5 -31.5q-76 0 -103 69l2 -2q-20 47 -61 73.5t-88 26.5q-33 0 -62.5 -13t-51 -34.5t-35 -50t-13.5 -61.5v-353h168q45 0 76.5 -32.5t31.5 -77.5q0 -47 -31.5 -79 t-76.5 -32h-168v-295q0 -47 -33 -78.5t-78 -31.5t-76.5 31.5t-31.5 78.5zM76 102v869q0 80 30.5 149.5t83 119.5t123 80t150.5 30q14 0 55 -5.5t93.5 -29t105.5 -71.5t90 -132q10 -25 10 -39q0 -47 -31.5 -78.5t-78.5 -31.5q-76 0 -103 69l2 -2q-20 47 -61 73.5t-88 26.5 q-33 0 -62.5 -13t-51 -34.5t-35 -50t-13.5 -61.5v-353h168q45 0 76.5 -32.5t31.5 -77.5q0 -47 -31.5 -79t-76.5 -32h-168v-295q0 -47 -33 -78.5t-78 -31.5t-76.5 31.5t-31.5 78.5z" />
<glyph unicode="&#xfb04;" horiz-adv-x="2097" d="M1792 102v1131q0 47 31.5 78.5t76.5 31.5t78 -31.5t33 -78.5v-1131q0 -47 -31.5 -78.5t-79.5 -31.5q-43 0 -75.5 31.5t-32.5 78.5zM932 102v869q0 80 30.5 149.5t83 119.5t123 80t150.5 30q14 0 55 -5.5t93.5 -29t105.5 -71.5t90 -132q10 -25 10 -39q0 -47 -31.5 -78.5 t-78.5 -31.5q-76 0 -103 69l2 -2q-20 47 -61 73.5t-88 26.5q-33 0 -62.5 -13t-51 -34.5t-35 -50t-13.5 -61.5v-353h168q45 0 76.5 -32.5t31.5 -77.5q0 -47 -31.5 -79t-76.5 -32h-168v-295q0 -47 -33 -78.5t-78 -31.5t-76.5 31.5t-31.5 78.5zM76 102v869q0 80 30.5 149.5 t83 119.5t123 80t150.5 30q14 0 55 -5.5t93.5 -29t105.5 -71.5t90 -132q10 -25 10 -39q0 -47 -31.5 -78.5t-78.5 -31.5q-76 0 -103 69l2 -2q-20 47 -61 73.5t-88 26.5q-33 0 -62.5 -13t-51 -34.5t-35 -50t-13.5 -61.5v-353h168q45 0 76.5 -32.5t31.5 -77.5q0 -47 -31.5 -79 t-76.5 -32h-168v-295q0 -47 -33 -78.5t-78 -31.5t-76.5 31.5t-31.5 78.5z" />
</font>
</defs>
</svg>
